<?xml version="1.0" encoding="UTF-8"?>
<svg viewBox="0 0 503.21 759.57" xmlns="http://www.w3.org/2000/svg" xmlns:xlink="http://www.w3.org/1999/xlink">
 <defs>
  <filter id="l">
   <feGaussianBlur stdDeviation=".2259"/>
  </filter>
  <filter id="k" x="-.11428" y="-.08196" width="1.2286" height="1.1639">
   <feGaussianBlur stdDeviation="12.0131"/>
  </filter>
  <filter id="a" x="-.12524" y="-.14871" width="1.2505" height="1.2974">
   <feGaussianBlur stdDeviation="4.9069"/>
  </filter>
  <linearGradient id="j" x1="340.52" x2="461.54" y1="-105.27" y2="-71.086" gradientUnits="userSpaceOnUse">
   <stop stop-color="#6c3000" offset="0"/>
   <stop stop-color="#9c6000" offset=".1311"/>
   <stop stop-color="#d8a820" offset=".2818"/>
   <stop stop-color="#cc9408" offset=".5852"/>
   <stop stop-color="#cc980c" offset=".7391"/>
   <stop stop-color="#f4e868" offset=".8513"/>
   <stop stop-color="#602400" offset="1"/>
  </linearGradient>
  <linearGradient id="c">
   <stop stop-color="#6c3000" offset="0"/>
   <stop stop-color="#9c6000" offset=".1788"/>
   <stop stop-color="#d8a820" offset=".3597"/>
   <stop stop-color="#cc9408" offset=".5852"/>
   <stop stop-color="#cc980c" offset=".7391"/>
   <stop stop-color="#f4e868" offset=".8513"/>
   <stop stop-color="#602400" offset="1"/>
  </linearGradient>
  <linearGradient id="g" x1="265.99" x2="492.99" y1="169.57" y2="227.7" gradientUnits="userSpaceOnUse">
   <stop stop-color="#6c3000" stop-opacity=".3269" offset="0"/>
   <stop stop-color="#a06400" offset=".1864"/>
   <stop stop-color="#fcf87c" offset=".3671"/>
   <stop stop-color="#cc9408" offset=".559"/>
   <stop stop-color="#cc980c" offset=".7897"/>
   <stop stop-color="#f4e868" offset=".9284"/>
   <stop stop-color="#602400" offset="1"/>
  </linearGradient>
  <linearGradient id="i" x1="181.22" x2="479.32" y1="316.57" y2="259.15" gradientUnits="userSpaceOnUse" xlink:href="#c"/>
  <linearGradient id="h" x1="168.21" x2="588.03" y1="335.04" y2="428.03" gradientUnits="userSpaceOnUse" xlink:href="#c"/>
  <linearGradient id="f" x1="330.27" x2="424.62" y1="-4.088" y2="-38.965" gradientUnits="userSpaceOnUse" xlink:href="#c"/>
  <linearGradient id="e" x1="312.49" x2="489.57" y1="12.326" y2="78.635" gradientUnits="userSpaceOnUse" xlink:href="#c"/>
  <linearGradient id="d" x1="286.5" x2="469.74" y1="147.7" y2="97.787" gradientUnits="userSpaceOnUse" xlink:href="#c"/>
  <radialGradient id="b" cx="557.4" cy="380.97" r="22.677" gradientTransform="matrix(.89143 -.09637 .09123 .70289 25.76 166.9)" gradientUnits="userSpaceOnUse">
   <stop stop-color="#fcfc80" offset="0"/>
   <stop stop-color="#d8ac24" offset=".57"/>
   <stop stop-color="#a86c00" offset="1"/>
  </radialGradient>
 </defs>
 <g transform="matrix(.94224 0 0 .94224 -111.18 290)">
  <path transform="matrix(1.7223 0 0 1.7223 -2192.9 -262.58)" d="m1514.7,108.77c32.328-.84983 47.815,17.515-14.158,34.412-48.9,16.203-67.87,32.325 1.3202,41.432 105.39,9.6128 53.024,36.422-20.116,49.422-74.246,15.498-79.603,31.229 15.327,41.651 128.32,15.59 46.472,46.459-29.219,52.597-123.27,5.9406-139.48,36.732 10.732,49.876 85.103,5.5266 166.64,12.909 133.62,34.754 40.578-27.897-40.955-35.279-126.06-40.806-150.22-13.144-134-43.935-10.732-49.876 75.691-6.1374 157.54-37.006 29.219-52.597-94.93-10.421-89.572-26.153-15.327-41.651 73.14-13.001 125.51-39.81 20.116-49.422-69.19-9.1068-50.22-25.229-1.3202-41.432 61.973-16.897 46.486-35.262 14.158-34.412-42.931-4.5251-54.829-14.968 1.5075-41.597-63.901,32.681-52.003,43.123-9.0724,47.649z" fill="#fcfc80" filter="url(#k)"/>
  <path d="m450.01-53.597c11.519-23.805-20.392-26.29-53.69-28.094-111.13-8.6753-15.171-64.52 9.6767-74.605-62.003,32.358-73.281,55.322-.62434,62.743 62.674,3.1674 76.021,16.811 44.638,39.956z" fill="url(#j)"/>
  <path d="m169.33 322.29c23.303-25.684 92.66-27.441 152.33-34.337 56.237-6.4987 113.19-9.6142 165.44-35.273-24.058 26.591-92.524 38.492-160.45 44.638-54.576 4.9385-109.13 6.5568-157.33 24.972z" fill="url(#i)"/>
  <path d="m170.32 321.61c-16.617 31.196 121.73 48.022 222.96 54.615 261.98 17.06 192.45 55.788 179.7 66.719 53.478-41.003-98.217-46.329-191.52-56.022-81.066-8.4212-283.41-23.163-211.14-65.312z" fill="url(#h)"/>
  <path d="m263.29 160.29c7.1086 29.102 90.519 29.828 135.47 37.77 143.6 21.018 100.96 47.04 88.651 54.002 14.193-26.462-57.43-34.826-100.2-42.765-39.516-5.1187-79.849-6.5456-119.24-20.914-31.057-11.328-12.668-23.13-4.6823-28.094z" fill="url(#g)"/>
  <path d="m319.79 3.2746c13.562-12.07 41.294-27.258 63.679-32.152 22.046-6.3431 44.355-12.072 63.991-24.036-12.594 13.92-37.318 23.962-59.309 30.279-25.924 6.3945-45.714 17.132-68.362 25.909z" fill="url(#f)"/>
  <path d="m318.54 4.5233c-10.446 6.6837-44.46 29.809 42.141 43.701 35.129 5.6354 69.821 7.5893 101.14 15.608 20.116 6.0786 24.351 13.827 20.602 25.597 6.9224-6.4984 21.851-16.685 13.11-25.284-17.6-17.316-67.85-21.257-108.32-25.285-21.26-2.117-46.33-7.241-62.43-16.232-6.9-3.851-7.92-11.503-6.24-18.105z" fill="url(#e)"/>
  <path d="m379.1 121.27c36.249-7.2062 70.919-17.569 103.01-33.088-16.518 14.624-43.933 28.858-106.76 41.828-39.153 6.9668-59.702 9.3955-112.06 29.967 22.561-20.963 63.649-29.671 115.81-38.707z" fill="url(#d)"/>
  <path transform="matrix(.31133 0 0 .34113 265.56 -174.45)" d="m574.86,399.82-14.967-5.557-13.063,9.1792 .6599-15.952-12.767-9.5869 15.375-4.3018 5.1726-15.104 8.8424,13.293 15.963.25196-9.9101,12.517z" fill="url(#b)"/>
  <path transform="matrix(.30422 0 0 .33335 269.85 -170.68)" d="m588.67 410-25.165-16.793 9.083 22.674-16.451-21.722-14.79 23.017 8.2698-26.578-27.145 18.683 23.963-25.396-37.195-9.0475 38.566 1.7458-23.657-26.741 29.059 21.64-1.472-33.497 8.8401 32.545 22.047-26.248-15.527 29.809 36.172-13.514-32.99 20.227 28.876 9.3706-30.247-2.0688z" fill="#fff" filter="url(#a)" opacity=".4077"/>
  <path transform="matrix(.76786 0 0 .84136 11.418 -366.38)" d="m588.67 410-25.165-16.793 9.083 22.674-16.451-21.722-14.79 23.017 8.2698-26.578-27.145 18.683 23.963-25.396-37.195-9.0475 38.566 1.7458-23.657-26.741 29.059 21.64-1.472-33.497 8.8401 32.545 22.047-26.248-15.527 29.809 36.172-13.514-32.99 20.227 28.876 9.3706-30.247-2.0688z" fill="#fff" filter="url(#a)" opacity=".4077"/>
  <path transform="matrix(.31133 0 0 .34113 130.69 -112.87)" d="m574.86,399.82-14.967-5.557-13.063,9.1792 .6599-15.952-12.767-9.5869 15.375-4.3018 5.1726-15.104 8.8424,13.293 15.963.25196-9.9101,12.517z" fill="url(#b)"/>
  <path transform="matrix(.30422 0 0 .33335 134.99 -109.1)" d="m588.67 410-25.165-16.793 9.083 22.674-16.451-21.722-14.79 23.017 8.2698-26.578-27.145 18.683 23.963-25.396-37.195-9.0475 38.566 1.7458-23.657-26.741 29.059 21.64-1.472-33.497 8.8401 32.545 22.047-26.248-15.527 29.809 36.172-13.514-32.99 20.227 28.876 9.3706-30.247-2.0688z" fill="#fff" filter="url(#a)" opacity=".4077"/>
  <path transform="matrix(.76786 0 0 .84136 -123.45 -304.8)" d="m588.67 410-25.165-16.793 9.083 22.674-16.451-21.722-14.79 23.017 8.2698-26.578-27.145 18.683 23.963-25.396-37.195-9.0475 38.566 1.7458-23.657-26.741 29.059 21.64-1.472-33.497 8.8401 32.545 22.047-26.248-15.527 29.809 36.172-13.514-32.99 20.227 28.876 9.3706-30.247-2.0688z" fill="#fff" filter="url(#a)" opacity=".4077"/>
  <path transform="matrix(.31133 0 0 .34113 194.12 -223.65)" d="m574.86,399.82-14.967-5.557-13.063,9.1792 .6599-15.952-12.767-9.5869 15.375-4.3018 5.1726-15.104 8.8424,13.293 15.963.25196-9.9101,12.517z" fill="url(#b)"/>
  <path transform="matrix(.30422 0 0 .33335 198.41 -219.88)" d="m588.67 410-25.165-16.793 9.083 22.674-16.451-21.722-14.79 23.017 8.2698-26.578-27.145 18.683 23.963-25.396-37.195-9.0475 38.566 1.7458-23.657-26.741 29.059 21.64-1.472-33.497 8.8401 32.545 22.047-26.248-15.527 29.809 36.172-13.514-32.99 20.227 28.876 9.3706-30.247-2.0688z" fill="#fff" filter="url(#a)" opacity=".4077"/>
  <path transform="matrix(.76786 0 0 .84136 -60.022 -415.58)" d="m588.67 410-25.165-16.793 9.083 22.674-16.451-21.722-14.79 23.017 8.2698-26.578-27.145 18.683 23.963-25.396-37.195-9.0475 38.566 1.7458-23.657-26.741 29.059 21.64-1.472-33.497 8.8401 32.545 22.047-26.248-15.527 29.809 36.172-13.514-32.99 20.227 28.876 9.3706-30.247-2.0688z" fill="#fff" filter="url(#a)" opacity=".4077"/>
  <path transform="matrix(.31133 0 0 .34113 199.07 -266.35)" d="m574.86,399.82-14.967-5.557-13.063,9.1792 .6599-15.952-12.767-9.5869 15.375-4.3018 5.1726-15.104 8.8424,13.293 15.963.25196-9.9101,12.517z" fill="url(#b)"/>
  <path transform="matrix(.30422 0 0 .33335 203.37 -262.58)" d="m588.67 410-25.165-16.793 9.083 22.674-16.451-21.722-14.79 23.017 8.2698-26.578-27.145 18.683 23.963-25.396-37.195-9.0475 38.566 1.7458-23.657-26.741 29.059 21.64-1.472-33.497 8.8401 32.545 22.047-26.248-15.527 29.809 36.172-13.514-32.99 20.227 28.876 9.3706-30.247-2.0688z" fill="#fff" filter="url(#a)" opacity=".4077"/>
  <path transform="matrix(.76786 0 0 .84136 -55.069 -458.28)" d="m588.67 410-25.165-16.793 9.083 22.674-16.451-21.722-14.79 23.017 8.2698-26.578-27.145 18.683 23.963-25.396-37.195-9.0475 38.566 1.7458-23.657-26.741 29.059 21.64-1.472-33.497 8.8401 32.545 22.047-26.248-15.527 29.809 36.172-13.514-32.99 20.227 28.876 9.3706-30.247-2.0688z" fill="#fff" filter="url(#a)" opacity=".4077"/>
  <path transform="matrix(.31133 0 0 .34113 175.47 -237.17)" d="m574.86,399.82-14.967-5.557-13.063,9.1792 .6599-15.952-12.767-9.5869 15.375-4.3018 5.1726-15.104 8.8424,13.293 15.963.25196-9.9101,12.517z" fill="url(#b)"/>
  <path transform="matrix(.30422 0 0 .33335 179.77 -233.4)" d="m588.67 410-25.165-16.793 9.083 22.674-16.451-21.722-14.79 23.017 8.2698-26.578-27.145 18.683 23.963-25.396-37.195-9.0475 38.566 1.7458-23.657-26.741 29.059 21.64-1.472-33.497 8.8401 32.545 22.047-26.248-15.527 29.809 36.172-13.514-32.99 20.227 28.876 9.3706-30.247-2.0688z" fill="#fff" filter="url(#a)" opacity=".4077"/>
  <path transform="matrix(.76786 0 0 .84136 -78.668 -429.1)" d="m588.67 410-25.165-16.793 9.083 22.674-16.451-21.722-14.79 23.017 8.2698-26.578-27.145 18.683 23.963-25.396-37.195-9.0475 38.566 1.7458-23.657-26.741 29.059 21.64-1.472-33.497 8.8401 32.545 22.047-26.248-15.527 29.809 36.172-13.514-32.99 20.227 28.876 9.3706-30.247-2.0688z" fill="#fff" filter="url(#a)" opacity=".4077"/>
  <path transform="matrix(.31133 0 0 .34113 181.85 -143.97)" d="m574.86,399.82-14.967-5.557-13.063,9.1792 .6599-15.952-12.767-9.5869 15.375-4.3018 5.1726-15.104 8.8424,13.293 15.963.25196-9.9101,12.517z" fill="url(#b)"/>
  <path transform="matrix(.30422 0 0 .33335 186.15 -140.2)" d="m588.67 410-25.165-16.793 9.083 22.674-16.451-21.722-14.79 23.017 8.2698-26.578-27.145 18.683 23.963-25.396-37.195-9.0475 38.566 1.7458-23.657-26.741 29.059 21.64-1.472-33.497 8.8401 32.545 22.047-26.248-15.527 29.809 36.172-13.514-32.99 20.227 28.876 9.3706-30.247-2.0688z" fill="#fff" filter="url(#a)" opacity=".4077"/>
  <path transform="matrix(.76786 0 0 .84136 -72.285 -335.9)" d="m588.67 410-25.165-16.793 9.083 22.674-16.451-21.722-14.79 23.017 8.2698-26.578-27.145 18.683 23.963-25.396-37.195-9.0475 38.566 1.7458-23.657-26.741 29.059 21.64-1.472-33.497 8.8401 32.545 22.047-26.248-15.527 29.809 36.172-13.514-32.99 20.227 28.876 9.3706-30.247-2.0688z" fill="#fff" filter="url(#a)" opacity=".4077"/>
  <path transform="matrix(.31133 0 0 .34113 228.26 -218.06)" d="m574.86,399.82-14.967-5.557-13.063,9.1792 .6599-15.952-12.767-9.5869 15.375-4.3018 5.1726-15.104 8.8424,13.293 15.963.25196-9.9101,12.517z" fill="url(#b)"/>
  <path transform="matrix(.30422 0 0 .33335 232.55 -214.29)" d="m588.67 410-25.165-16.793 9.083 22.674-16.451-21.722-14.79 23.017 8.2698-26.578-27.145 18.683 23.963-25.396-37.195-9.0475 38.566 1.7458-23.657-26.741 29.059 21.64-1.472-33.497 8.8401 32.545 22.047-26.248-15.527 29.809 36.172-13.514-32.99 20.227 28.876 9.3706-30.247-2.0688z" fill="#fff" filter="url(#a)" opacity=".4077"/>
  <path transform="matrix(.76786 0 0 .84136 -25.88 -409.99)" d="m588.67 410-25.165-16.793 9.083 22.674-16.451-21.722-14.79 23.017 8.2698-26.578-27.145 18.683 23.963-25.396-37.195-9.0475 38.566 1.7458-23.657-26.741 29.059 21.64-1.472-33.497 8.8401 32.545 22.047-26.248-15.527 29.809 36.172-13.514-32.99 20.227 28.876 9.3706-30.247-2.0688z" fill="#fff" filter="url(#a)" opacity=".4077"/>
  <path transform="matrix(.31133 0 0 .34113 271.4 -211.89)" d="m574.86,399.82-14.967-5.557-13.063,9.1792 .6599-15.952-12.767-9.5869 15.375-4.3018 5.1726-15.104 8.8424,13.293 15.963.25196-9.9101,12.517z" fill="url(#b)"/>
  <path transform="matrix(.30422 0 0 .33335 275.7 -208.12)" d="m588.67 410-25.165-16.793 9.083 22.674-16.451-21.722-14.79 23.017 8.2698-26.578-27.145 18.683 23.963-25.396-37.195-9.0475 38.566 1.7458-23.657-26.741 29.059 21.64-1.472-33.497 8.8401 32.545 22.047-26.248-15.527 29.809 36.172-13.514-32.99 20.227 28.876 9.3706-30.247-2.0688z" fill="#fff" filter="url(#a)" opacity=".4077"/>
  <path transform="matrix(.76786 0 0 .84136 17.266 -403.82)" d="m588.67 410-25.165-16.793 9.083 22.674-16.451-21.722-14.79 23.017 8.2698-26.578-27.145 18.683 23.963-25.396-37.195-9.0475 38.566 1.7458-23.657-26.741 29.059 21.64-1.472-33.497 8.8401 32.545 22.047-26.248-15.527 29.809 36.172-13.514-32.99 20.227 28.876 9.3706-30.247-2.0688z" fill="#fff" filter="url(#a)" opacity=".4077"/>
  <path transform="matrix(.31133 0 0 .34113 304.23 -43.721)" d="m574.86,399.82-14.967-5.557-13.063,9.1792 .6599-15.952-12.767-9.5869 15.375-4.3018 5.1726-15.104 8.8424,13.293 15.963.25196-9.9101,12.517z" fill="url(#b)"/>
  <path transform="matrix(.30422 0 0 .33335 308.52 -39.949)" d="m588.67 410-25.165-16.793 9.083 22.674-16.451-21.722-14.79 23.017 8.2698-26.578-27.145 18.683 23.963-25.396-37.195-9.0475 38.566 1.7458-23.657-26.741 29.059 21.64-1.472-33.497 8.8401 32.545 22.047-26.248-15.527 29.809 36.172-13.514-32.99 20.227 28.876 9.3706-30.247-2.0688z" fill="#fff" filter="url(#a)" opacity=".4077"/>
  <path transform="matrix(.76786 0 0 .84136 50.089 -235.65)" d="m588.67 410-25.165-16.793 9.083 22.674-16.451-21.722-14.79 23.017 8.2698-26.578-27.145 18.683 23.963-25.396-37.195-9.0475 38.566 1.7458-23.657-26.741 29.059 21.64-1.472-33.497 8.8401 32.545 22.047-26.248-15.527 29.809 36.172-13.514-32.99 20.227 28.876 9.3706-30.247-2.0688z" fill="#fff" filter="url(#a)" opacity=".4077"/>
  <path transform="matrix(.31133 0 0 .34113 212.71 -86.884)" d="m574.86,399.82-14.967-5.557-13.063,9.1792 .6599-15.952-12.767-9.5869 15.375-4.3018 5.1726-15.104 8.8424,13.293 15.963.25196-9.9101,12.517z" fill="url(#b)"/>
  <path transform="matrix(.30422 0 0 .33335 217.01 -83.113)" d="m588.67 410-25.165-16.793 9.083 22.674-16.451-21.722-14.79 23.017 8.2698-26.578-27.145 18.683 23.963-25.396-37.195-9.0475 38.566 1.7458-23.657-26.741 29.059 21.64-1.472-33.497 8.8401 32.545 22.047-26.248-15.527 29.809 36.172-13.514-32.99 20.227 28.876 9.3706-30.247-2.0688z" fill="#fff" filter="url(#a)" opacity=".4077"/>
  <path transform="matrix(.76786 0 0 .84136 -41.425 -278.81)" d="m588.67 410-25.165-16.793 9.083 22.674-16.451-21.722-14.79 23.017 8.2698-26.578-27.145 18.683 23.963-25.396-37.195-9.0475 38.566 1.7458-23.657-26.741 29.059 21.64-1.472-33.497 8.8401 32.545 22.047-26.248-15.527 29.809 36.172-13.514-32.99 20.227 28.876 9.3706-30.247-2.0688z" fill="#fff" filter="url(#a)" opacity=".4077"/>
  <path transform="matrix(.31133 0 0 .34113 309.78 32.855)" d="m574.86,399.82-14.967-5.557-13.063,9.1792 .6599-15.952-12.767-9.5869 15.375-4.3018 5.1726-15.104 8.8424,13.293 15.963.25196-9.9101,12.517z" fill="url(#b)"/>
  <path transform="matrix(.30422 0 0 .33335 314.08 36.627)" d="m588.67 410-25.165-16.793 9.083 22.674-16.451-21.722-14.79 23.017 8.2698-26.578-27.145 18.683 23.963-25.396-37.195-9.0475 38.566 1.7458-23.657-26.741 29.059 21.64-1.472-33.497 8.8401 32.545 22.047-26.248-15.527 29.809 36.172-13.514-32.99 20.227 28.876 9.3706-30.247-2.0688z" fill="#fff" filter="url(#a)" opacity=".4077"/>
  <path transform="matrix(.76786 0 0 .84136 55.645 -159.07)" d="m588.67 410-25.165-16.793 9.083 22.674-16.451-21.722-14.79 23.017 8.2698-26.578-27.145 18.683 23.963-25.396-37.195-9.0475 38.566 1.7458-23.657-26.741 29.059 21.64-1.472-33.497 8.8401 32.545 22.047-26.248-15.527 29.809 36.172-13.514-32.99 20.227 28.876 9.3706-30.247-2.0688z" fill="#fff" filter="url(#a)" opacity=".4077"/>
  <path transform="matrix(.31133 0 0 .34113 217.51 -6.1263)" d="m574.86,399.82-14.967-5.557-13.063,9.1792 .6599-15.952-12.767-9.5869 15.375-4.3018 5.1726-15.104 8.8424,13.293 15.963.25196-9.9101,12.517z" fill="url(#b)"/>
  <path transform="matrix(.30422 0 0 .33335 221.8 -2.3547)" d="m588.67 410-25.165-16.793 9.083 22.674-16.451-21.722-14.79 23.017 8.2698-26.578-27.145 18.683 23.963-25.396-37.195-9.0475 38.566 1.7458-23.657-26.741 29.059 21.64-1.472-33.497 8.8401 32.545 22.047-26.248-15.527 29.809 36.172-13.514-32.99 20.227 28.876 9.3706-30.247-2.0688z" fill="#fff" filter="url(#a)" opacity=".4077"/>
  <path transform="matrix(.76786 0 0 .84136 -36.633 -198.05)" d="m588.67 410-25.165-16.793 9.083 22.674-16.451-21.722-14.79 23.017 8.2698-26.578-27.145 18.683 23.963-25.396-37.195-9.0475 38.566 1.7458-23.657-26.741 29.059 21.64-1.472-33.497 8.8401 32.545 22.047-26.248-15.527 29.809 36.172-13.514-32.99 20.227 28.876 9.3706-30.247-2.0688z" fill="#fff" filter="url(#a)" opacity=".4077"/>
  <path transform="matrix(.31133 0 0 .34113 263.64 -19.058)" d="m574.86,399.82-14.967-5.557-13.063,9.1792 .6599-15.952-12.767-9.5869 15.375-4.3018 5.1726-15.104 8.8424,13.293 15.963.25196-9.9101,12.517z" fill="url(#b)"/>
  <path transform="matrix(.30422 0 0 .33335 267.93 -15.287)" d="m588.67 410-25.165-16.793 9.083 22.674-16.451-21.722-14.79 23.017 8.2698-26.578-27.145 18.683 23.963-25.396-37.195-9.0475 38.566 1.7458-23.657-26.741 29.059 21.64-1.472-33.497 8.8401 32.545 22.047-26.248-15.527 29.809 36.172-13.514-32.99 20.227 28.876 9.3706-30.247-2.0688z" fill="#fff" filter="url(#a)" opacity=".4077"/>
  <path transform="matrix(.76786 0 0 .84136 9.4998 -210.99)" d="m588.67 410-25.165-16.793 9.083 22.674-16.451-21.722-14.79 23.017 8.2698-26.578-27.145 18.683 23.963-25.396-37.195-9.0475 38.566 1.7458-23.657-26.741 29.059 21.64-1.472-33.497 8.8401 32.545 22.047-26.248-15.527 29.809 36.172-13.514-32.99 20.227 28.876 9.3706-30.247-2.0688z" fill="#fff" filter="url(#a)" opacity=".4077"/>
  <path transform="matrix(.31133 0 0 .34113 165.67 .92232)" d="m574.86,399.82-14.967-5.557-13.063,9.1792 .6599-15.952-12.767-9.5869 15.375-4.3018 5.1726-15.104 8.8424,13.293 15.963.25196-9.9101,12.517z" fill="url(#b)"/>
  <path transform="matrix(.30422 0 0 .33335 169.96 4.6939)" d="m588.67 410-25.165-16.793 9.083 22.674-16.451-21.722-14.79 23.017 8.2698-26.578-27.145 18.683 23.963-25.396-37.195-9.0475 38.566 1.7458-23.657-26.741 29.059 21.64-1.472-33.497 8.8401 32.545 22.047-26.248-15.527 29.809 36.172-13.514-32.99 20.227 28.876 9.3706-30.247-2.0688z" fill="#fff" filter="url(#a)" opacity=".4077"/>
  <path transform="matrix(.76786 0 0 .84136 -88.473 -191.01)" d="m588.67 410-25.165-16.793 9.083 22.674-16.451-21.722-14.79 23.017 8.2698-26.578-27.145 18.683 23.963-25.396-37.195-9.0475 38.566 1.7458-23.657-26.741 29.059 21.64-1.472-33.497 8.8401 32.545 22.047-26.248-15.527 29.809 36.172-13.514-32.99 20.227 28.876 9.3706-30.247-2.0688z" fill="#fff" filter="url(#a)" opacity=".4077"/>
  <path transform="matrix(.31133 0 0 .34113 121.31 15.771)" d="m574.86,399.82-14.967-5.557-13.063,9.1792 .6599-15.952-12.767-9.5869 15.375-4.3018 5.1726-15.104 8.8424,13.293 15.963.25196-9.9101,12.517z" fill="url(#b)"/>
  <path transform="matrix(.30422 0 0 .33335 125.61 19.543)" d="m588.67 410-25.165-16.793 9.083 22.674-16.451-21.722-14.79 23.017 8.2698-26.578-27.145 18.683 23.963-25.396-37.195-9.0475 38.566 1.7458-23.657-26.741 29.059 21.64-1.472-33.497 8.8401 32.545 22.047-26.248-15.527 29.809 36.172-13.514-32.99 20.227 28.876 9.3706-30.247-2.0688z" fill="#fff" filter="url(#a)" opacity=".4077"/>
  <path transform="matrix(.76786 0 0 .84136 -132.83 -176.16)" d="m588.67 410-25.165-16.793 9.083 22.674-16.451-21.722-14.79 23.017 8.2698-26.578-27.145 18.683 23.963-25.396-37.195-9.0475 38.566 1.7458-23.657-26.741 29.059 21.64-1.472-33.497 8.8401 32.545 22.047-26.248-15.527 29.809 36.172-13.514-32.99 20.227 28.876 9.3706-30.247-2.0688z" fill="#fff" filter="url(#a)" opacity=".4077"/>
  <path transform="matrix(.31133 0 0 .34113 164.34 -178.56)" d="m574.86,399.82-14.967-5.557-13.063,9.1792 .6599-15.952-12.767-9.5869 15.375-4.3018 5.1726-15.104 8.8424,13.293 15.963.25196-9.9101,12.517z" fill="url(#b)"/>
  <path transform="matrix(.30422 0 0 .33335 168.64 -174.79)" d="m588.67 410-25.165-16.793 9.083 22.674-16.451-21.722-14.79 23.017 8.2698-26.578-27.145 18.683 23.963-25.396-37.195-9.0475 38.566 1.7458-23.657-26.741 29.059 21.64-1.472-33.497 8.8401 32.545 22.047-26.248-15.527 29.809 36.172-13.514-32.99 20.227 28.876 9.3706-30.247-2.0688z" fill="#fff" filter="url(#a)" opacity=".4077"/>
  <path transform="matrix(.76786 0 0 .84136 -89.794 -370.49)" d="m588.67 410-25.165-16.793 9.083 22.674-16.451-21.722-14.79 23.017 8.2698-26.578-27.145 18.683 23.963-25.396-37.195-9.0475 38.566 1.7458-23.657-26.741 29.059 21.64-1.472-33.497 8.8401 32.545 22.047-26.248-15.527 29.809 36.172-13.514-32.99 20.227 28.876 9.3706-30.247-2.0688z" fill="#fff" filter="url(#a)" opacity=".4077"/>
  <path transform="matrix(.31133 0 0 .34113 364.6 230.3)" d="m574.86,399.82-14.967-5.557-13.063,9.1792 .6599-15.952-12.767-9.5869 15.375-4.3018 5.1726-15.104 8.8424,13.293 15.963.25196-9.9101,12.517z" fill="url(#b)"/>
  <path transform="matrix(.30422 0 0 .33335 368.9 234.07)" d="m588.67 410-25.165-16.793 9.083 22.674-16.451-21.722-14.79 23.017 8.2698-26.578-27.145 18.683 23.963-25.396-37.195-9.0475 38.566 1.7458-23.657-26.741 29.059 21.64-1.472-33.497 8.8401 32.545 22.047-26.248-15.527 29.809 36.172-13.514-32.99 20.227 28.876 9.3706-30.247-2.0688z" fill="#fff" filter="url(#a)" opacity=".4077"/>
  <path transform="matrix(.76786 0 0 .84136 110.46 38.373)" d="m588.67 410-25.165-16.793 9.083 22.674-16.451-21.722-14.79 23.017 8.2698-26.578-27.145 18.683 23.963-25.396-37.195-9.0475 38.566 1.7458-23.657-26.741 29.059 21.64-1.472-33.497 8.8401 32.545 22.047-26.248-15.527 29.809 36.172-13.514-32.99 20.227 28.876 9.3706-30.247-2.0688z" fill="#fff" filter="url(#a)" opacity=".4077"/>
  <path transform="matrix(.31133 0 0 .34113 272.33 253.19)" d="m574.86,399.82-14.967-5.557-13.063,9.1792 .6599-15.952-12.767-9.5869 15.375-4.3018 5.1726-15.104 8.8424,13.293 15.963.25196-9.9101,12.517z" fill="url(#b)"/>
  <path transform="matrix(.30422 0 0 .33335 276.63 256.97)" d="m588.67 410-25.165-16.793 9.083 22.674-16.451-21.722-14.79 23.017 8.2698-26.578-27.145 18.683 23.963-25.396-37.195-9.0475 38.566 1.7458-23.657-26.741 29.059 21.64-1.472-33.497 8.8401 32.545 22.047-26.248-15.527 29.809 36.172-13.514-32.99 20.227 28.876 9.3706-30.247-2.0688z" fill="#fff" filter="url(#a)" opacity=".4077"/>
  <path transform="matrix(.76786 0 0 .84136 18.194 61.266)" d="m588.67 410-25.165-16.793 9.083 22.674-16.451-21.722-14.79 23.017 8.2698-26.578-27.145 18.683 23.963-25.396-37.195-9.0475 38.566 1.7458-23.657-26.741 29.059 21.64-1.472-33.497 8.8401 32.545 22.047-26.248-15.527 29.809 36.172-13.514-32.99 20.227 28.876 9.3706-30.247-2.0688z" fill="#fff" filter="url(#a)" opacity=".4077"/>
  <path transform="matrix(.31133 0 0 .34113 326.43 104.57)" d="m574.86,399.82-14.967-5.557-13.063,9.1792 .6599-15.952-12.767-9.5869 15.375-4.3018 5.1726-15.104 8.8424,13.293 15.963.25196-9.9101,12.517z" fill="url(#b)"/>
  <path transform="matrix(.30422 0 0 .33335 330.72 108.34)" d="m588.67 410-25.165-16.793 9.083 22.674-16.451-21.722-14.79 23.017 8.2698-26.578-27.145 18.683 23.963-25.396-37.195-9.0475 38.566 1.7458-23.657-26.741 29.059 21.64-1.472-33.497 8.8401 32.545 22.047-26.248-15.527 29.809 36.172-13.514-32.99 20.227 28.876 9.3706-30.247-2.0688z" fill="#fff" filter="url(#a)" opacity=".4077"/>
  <path transform="matrix(.76786 0 0 .84136 72.288 -87.363)" d="m588.67 410-25.165-16.793 9.083 22.674-16.451-21.722-14.79 23.017 8.2698-26.578-27.145 18.683 23.963-25.396-37.195-9.0475 38.566 1.7458-23.657-26.741 29.059 21.64-1.472-33.497 8.8401 32.545 22.047-26.248-15.527 29.809 36.172-13.514-32.99 20.227 28.876 9.3706-30.247-2.0688z" fill="#fff" filter="url(#a)" opacity=".4077"/>
  <path transform="matrix(.31133 0 0 .34113 318.4 258.14)" d="m574.86,399.82-14.967-5.557-13.063,9.1792 .6599-15.952-12.767-9.5869 15.375-4.3018 5.1726-15.104 8.8424,13.293 15.963.25196-9.9101,12.517z" fill="url(#b)"/>
  <path transform="matrix(.30422 0 0 .33335 322.7 261.91)" d="m588.67 410-25.165-16.793 9.083 22.674-16.451-21.722-14.79 23.017 8.2698-26.578-27.145 18.683 23.963-25.396-37.195-9.0475 38.566 1.7458-23.657-26.741 29.059 21.64-1.472-33.497 8.8401 32.545 22.047-26.248-15.527 29.809 36.172-13.514-32.99 20.227 28.876 9.3706-30.247-2.0688z" fill="#fff" filter="url(#a)" opacity=".4077"/>
  <path transform="matrix(.76786 0 0 .84136 64.261 66.216)" d="m588.67 410-25.165-16.793 9.083 22.674-16.451-21.722-14.79 23.017 8.2698-26.578-27.145 18.683 23.963-25.396-37.195-9.0475 38.566 1.7458-23.657-26.741 29.059 21.64-1.472-33.497 8.8401 32.545 22.047-26.248-15.527 29.809 36.172-13.514-32.99 20.227 28.876 9.3706-30.247-2.0688z" fill="#fff" filter="url(#a)" opacity=".4077"/>
  <path transform="matrix(.31133 0 0 .34113 412.05 286.43)" d="m574.86,399.82-14.967-5.557-13.063,9.1792 .6599-15.952-12.767-9.5869 15.375-4.3018 5.1726-15.104 8.8424,13.293 15.963.25196-9.9101,12.517z" fill="url(#b)"/>
  <path transform="matrix(.30422 0 0 .33335 416.34 290.2)" d="m588.67 410-25.165-16.793 9.083 22.674-16.451-21.722-14.79 23.017 8.2698-26.578-27.145 18.683 23.963-25.396-37.195-9.0475 38.566 1.7458-23.657-26.741 29.059 21.64-1.472-33.497 8.8401 32.545 22.047-26.248-15.527 29.809 36.172-13.514-32.99 20.227 28.876 9.3706-30.247-2.0688z" fill="#fff" filter="url(#a)" opacity=".4077"/>
  <path transform="matrix(.76786 0 0 .84136 157.91 94.498)" d="m588.67 410-25.165-16.793 9.083 22.674-16.451-21.722-14.79 23.017 8.2698-26.578-27.145 18.683 23.963-25.396-37.195-9.0475 38.566 1.7458-23.657-26.741 29.059 21.64-1.472-33.497 8.8401 32.545 22.047-26.248-15.527 29.809 36.172-13.514-32.99 20.227 28.876 9.3706-30.247-2.0688z" fill="#fff" filter="url(#a)" opacity=".4077"/>
  <path transform="matrix(.31133 0 0 .34113 371.09 268.39)" d="m574.86,399.82-14.967-5.557-13.063,9.1792 .6599-15.952-12.767-9.5869 15.375-4.3018 5.1726-15.104 8.8424,13.293 15.963.25196-9.9101,12.517z" fill="url(#b)"/>
  <path transform="matrix(.30422 0 0 .33335 375.38 272.16)" d="m588.67 410-25.165-16.793 9.083 22.674-16.451-21.722-14.79 23.017 8.2698-26.578-27.145 18.683 23.963-25.396-37.195-9.0475 38.566 1.7458-23.657-26.741 29.059 21.64-1.472-33.497 8.8401 32.545 22.047-26.248-15.527 29.809 36.172-13.514-32.99 20.227 28.876 9.3706-30.247-2.0688z" fill="#fff" filter="url(#a)" opacity=".4077"/>
  <path transform="matrix(.76786 0 0 .84136 116.95 76.458)" d="m588.67 410-25.165-16.793 9.083 22.674-16.451-21.722-14.79 23.017 8.2698-26.578-27.145 18.683 23.963-25.396-37.195-9.0475 38.566 1.7458-23.657-26.741 29.059 21.64-1.472-33.497 8.8401 32.545 22.047-26.248-15.527 29.809 36.172-13.514-32.99 20.227 28.876 9.3706-30.247-2.0688z" fill="#fff" filter="url(#a)" opacity=".4077"/>
  <path transform="matrix(.31133 0 0 .34113 218.64 250.43)" d="m574.86,399.82-14.967-5.557-13.063,9.1792 .6599-15.952-12.767-9.5869 15.375-4.3018 5.1726-15.104 8.8424,13.293 15.963.25196-9.9101,12.517z" fill="url(#b)"/>
  <path transform="matrix(.30422 0 0 .33335 222.94 254.2)" d="m588.67 410-25.165-16.793 9.083 22.674-16.451-21.722-14.79 23.017 8.2698-26.578-27.145 18.683 23.963-25.396-37.195-9.0475 38.566 1.7458-23.657-26.741 29.059 21.64-1.472-33.497 8.8401 32.545 22.047-26.248-15.527 29.809 36.172-13.514-32.99 20.227 28.876 9.3706-30.247-2.0688z" fill="#fff" filter="url(#a)" opacity=".4077"/>
  <path transform="matrix(.76786 0 0 .84136 -35.496 58.505)" d="m588.67 410-25.165-16.793 9.083 22.674-16.451-21.722-14.79 23.017 8.2698-26.578-27.145 18.683 23.963-25.396-37.195-9.0475 38.566 1.7458-23.657-26.741 29.059 21.64-1.472-33.497 8.8401 32.545 22.047-26.248-15.527 29.809 36.172-13.514-32.99 20.227 28.876 9.3706-30.247-2.0688z" fill="#fff" filter="url(#a)" opacity=".4077"/>
  <path transform="matrix(.31133 0 0 .34113 123.15 240.57)" d="m574.86,399.82-14.967-5.557-13.063,9.1792 .6599-15.952-12.767-9.5869 15.375-4.3018 5.1726-15.104 8.8424,13.293 15.963.25196-9.9101,12.517z" fill="url(#b)"/>
  <path transform="matrix(.30422 0 0 .33335 127.45 244.34)" d="m588.67 410-25.165-16.793 9.083 22.674-16.451-21.722-14.79 23.017 8.2698-26.578-27.145 18.683 23.963-25.396-37.195-9.0475 38.566 1.7458-23.657-26.741 29.059 21.64-1.472-33.497 8.8401 32.545 22.047-26.248-15.527 29.809 36.172-13.514-32.99 20.227 28.876 9.3706-30.247-2.0688z" fill="#fff" filter="url(#a)" opacity=".4077"/>
  <path transform="matrix(.76786 0 0 .84136 -130.99 48.641)" d="m588.67 410-25.165-16.793 9.083 22.674-16.451-21.722-14.79 23.017 8.2698-26.578-27.145 18.683 23.963-25.396-37.195-9.0475 38.566 1.7458-23.657-26.741 29.059 21.64-1.472-33.497 8.8401 32.545 22.047-26.248-15.527 29.809 36.172-13.514-32.99 20.227 28.876 9.3706-30.247-2.0688z" fill="#fff" filter="url(#a)" opacity=".4077"/>
  <path transform="matrix(.31133 0 0 .34113 74.251 237.76)" d="m574.86,399.82-14.967-5.557-13.063,9.1792 .6599-15.952-12.767-9.5869 15.375-4.3018 5.1726-15.104 8.8424,13.293 15.963.25196-9.9101,12.517z" fill="url(#b)"/>
  <path transform="matrix(.30422 0 0 .33335 78.548 241.53)" d="m588.67 410-25.165-16.793 9.083 22.674-16.451-21.722-14.79 23.017 8.2698-26.578-27.145 18.683 23.963-25.396-37.195-9.0475 38.566 1.7458-23.657-26.741 29.059 21.64-1.472-33.497 8.8401 32.545 22.047-26.248-15.527 29.809 36.172-13.514-32.99 20.227 28.876 9.3706-30.247-2.0688z" fill="#fff" filter="url(#a)" opacity=".4077"/>
  <path transform="matrix(.76786 0 0 .84136 -179.89 45.828)" d="m588.67 410-25.165-16.793 9.083 22.674-16.451-21.722-14.79 23.017 8.2698-26.578-27.145 18.683 23.963-25.396-37.195-9.0475 38.566 1.7458-23.657-26.741 29.059 21.64-1.472-33.497 8.8401 32.545 22.047-26.248-15.527 29.809 36.172-13.514-32.99 20.227 28.876 9.3706-30.247-2.0688z" fill="#fff" filter="url(#a)" opacity=".4077"/>
  <path transform="matrix(.31133 0 0 .34113 .55245 216.45)" d="m574.86,399.82-14.967-5.557-13.063,9.1792 .6599-15.952-12.767-9.5869 15.375-4.3018 5.1726-15.104 8.8424,13.293 15.963.25196-9.9101,12.517z" fill="url(#b)"/>
  <path transform="matrix(.30422 0 0 .33335 4.849 220.22)" d="m588.67 410-25.165-16.793 9.083 22.674-16.451-21.722-14.79 23.017 8.2698-26.578-27.145 18.683 23.963-25.396-37.195-9.0475 38.566 1.7458-23.657-26.741 29.059 21.64-1.472-33.497 8.8401 32.545 22.047-26.248-15.527 29.809 36.172-13.514-32.99 20.227 28.876 9.3706-30.247-2.0688z" fill="#fff" filter="url(#a)" opacity=".4077"/>
  <path transform="matrix(.76786 0 0 .84136 -253.59 24.518)" d="m588.67 410-25.165-16.793 9.083 22.674-16.451-21.722-14.79 23.017 8.2698-26.578-27.145 18.683 23.963-25.396-37.195-9.0475 38.566 1.7458-23.657-26.741 29.059 21.64-1.472-33.497 8.8401 32.545 22.047-26.248-15.527 29.809 36.172-13.514-32.99 20.227 28.876 9.3706-30.247-2.0688z" fill="#fff" filter="url(#a)" opacity=".4077"/>
  <path transform="matrix(.31133 0 0 .34113 238.38 75.945)" d="m574.86,399.82-14.967-5.557-13.063,9.1792 .6599-15.952-12.767-9.5869 15.375-4.3018 5.1726-15.104 8.8424,13.293 15.963.25196-9.9101,12.517z" fill="url(#b)"/>
  <path transform="matrix(.30422 0 0 .33335 242.68 79.717)" d="m588.67 410-25.165-16.793 9.083 22.674-16.451-21.722-14.79 23.017 8.2698-26.578-27.145 18.683 23.963-25.396-37.195-9.0475 38.566 1.7458-23.657-26.741 29.059 21.64-1.472-33.497 8.8401 32.545 22.047-26.248-15.527 29.809 36.172-13.514-32.99 20.227 28.876 9.3706-30.247-2.0688z" fill="#fff" filter="url(#a)" opacity=".4077"/>
  <path transform="matrix(.76786 0 0 .84136 -15.757 -115.98)" d="m588.67 410-25.165-16.793 9.083 22.674-16.451-21.722-14.79 23.017 8.2698-26.578-27.145 18.683 23.963-25.396-37.195-9.0475 38.566 1.7458-23.657-26.741 29.059 21.64-1.472-33.497 8.8401 32.545 22.047-26.248-15.527 29.809 36.172-13.514-32.99 20.227 28.876 9.3706-30.247-2.0688z" fill="#fff" filter="url(#a)" opacity=".4077"/>
  <path transform="matrix(.31133 0 0 .34113 48.102 173.81)" d="m574.86,399.82-14.967-5.557-13.063,9.1792 .6599-15.952-12.767-9.5869 15.375-4.3018 5.1726-15.104 8.8424,13.293 15.963.25196-9.9101,12.517z" fill="url(#b)"/>
  <path transform="matrix(.30422 0 0 .33335 52.399 177.58)" d="m588.67 410-25.165-16.793 9.083 22.674-16.451-21.722-14.79 23.017 8.2698-26.578-27.145 18.683 23.963-25.396-37.195-9.0475 38.566 1.7458-23.657-26.741 29.059 21.64-1.472-33.497 8.8401 32.545 22.047-26.248-15.527 29.809 36.172-13.514-32.99 20.227 28.876 9.3706-30.247-2.0688z" fill="#fff" filter="url(#a)" opacity=".4077"/>
  <path transform="matrix(.76786 0 0 .84136 -206.04 -18.119)" d="m588.67 410-25.165-16.793 9.083 22.674-16.451-21.722-14.79 23.017 8.2698-26.578-27.145 18.683 23.963-25.396-37.195-9.0475 38.566 1.7458-23.657-26.741 29.059 21.64-1.472-33.497 8.8401 32.545 22.047-26.248-15.527 29.809 36.172-13.514-32.99 20.227 28.876 9.3706-30.247-2.0688z" fill="#fff" filter="url(#a)" opacity=".4077"/>
  <path transform="matrix(.31133 0 0 .34113 149.58 63.235)" d="m574.86,399.82-14.967-5.557-13.063,9.1792 .6599-15.952-12.767-9.5869 15.375-4.3018 5.1726-15.104 8.8424,13.293 15.963.25196-9.9101,12.517z" fill="url(#b)"/>
  <path transform="matrix(.30422 0 0 .33335 153.88 67.006)" d="m588.67 410-25.165-16.793 9.083 22.674-16.451-21.722-14.79 23.017 8.2698-26.578-27.145 18.683 23.963-25.396-37.195-9.0475 38.566 1.7458-23.657-26.741 29.059 21.64-1.472-33.497 8.8401 32.545 22.047-26.248-15.527 29.809 36.172-13.514-32.99 20.227 28.876 9.3706-30.247-2.0688z" fill="#fff" filter="url(#a)" opacity=".4077"/>
  <path transform="matrix(.76786 0 0 .84136 -104.56 -128.69)" d="m588.67 410-25.165-16.793 9.083 22.674-16.451-21.722-14.79 23.017 8.2698-26.578-27.145 18.683 23.963-25.396-37.195-9.0475 38.566 1.7458-23.657-26.741 29.059 21.64-1.472-33.497 8.8401 32.545 22.047-26.248-15.527 29.809 36.172-13.514-32.99 20.227 28.876 9.3706-30.247-2.0688z" fill="#fff" filter="url(#a)" opacity=".4077"/>
  <path transform="matrix(.31133 0 0 .34113 195.07 71.623)" d="m574.86,399.82-14.967-5.557-13.063,9.1792 .6599-15.952-12.767-9.5869 15.375-4.3018 5.1726-15.104 8.8424,13.293 15.963.25196-9.9101,12.517z" fill="url(#b)"/>
  <path transform="matrix(.30422 0 0 .33335 199.37 75.394)" d="m588.67 410-25.165-16.793 9.083 22.674-16.451-21.722-14.79 23.017 8.2698-26.578-27.145 18.683 23.963-25.396-37.195-9.0475 38.566 1.7458-23.657-26.741 29.059 21.64-1.472-33.497 8.8401 32.545 22.047-26.248-15.527 29.809 36.172-13.514-32.99 20.227 28.876 9.3706-30.247-2.0688z" fill="#fff" filter="url(#a)" opacity=".4077"/>
  <path transform="matrix(.76786 0 0 .84136 -59.067 -120.31)" d="m588.67 410-25.165-16.793 9.083 22.674-16.451-21.722-14.79 23.017 8.2698-26.578-27.145 18.683 23.963-25.396-37.195-9.0475 38.566 1.7458-23.657-26.741 29.059 21.64-1.472-33.497 8.8401 32.545 22.047-26.248-15.527 29.809 36.172-13.514-32.99 20.227 28.876 9.3706-30.247-2.0688z" fill="#fff" filter="url(#a)" opacity=".4077"/>
  <path transform="matrix(.31133 0 0 .34113 289.97 88.408)" d="m574.86,399.82-14.967-5.557-13.063,9.1792 .6599-15.952-12.767-9.5869 15.375-4.3018 5.1726-15.104 8.8424,13.293 15.963.25196-9.9101,12.517z" fill="url(#b)"/>
  <path transform="matrix(.30422 0 0 .33335 294.26 92.18)" d="m588.67 410-25.165-16.793 9.083 22.674-16.451-21.722-14.79 23.017 8.2698-26.578-27.145 18.683 23.963-25.396-37.195-9.0475 38.566 1.7458-23.657-26.741 29.059 21.64-1.472-33.497 8.8401 32.545 22.047-26.248-15.527 29.809 36.172-13.514-32.99 20.227 28.876 9.3706-30.247-2.0688z" fill="#fff" filter="url(#a)" opacity=".4077"/>
  <path transform="matrix(.76786 0 0 .84136 35.828 -103.52)" d="m588.67 410-25.165-16.793 9.083 22.674-16.451-21.722-14.79 23.017 8.2698-26.578-27.145 18.683 23.963-25.396-37.195-9.0475 38.566 1.7458-23.657-26.741 29.059 21.64-1.472-33.497 8.8401 32.545 22.047-26.248-15.527 29.809 36.172-13.514-32.99 20.227 28.876 9.3706-30.247-2.0688z" fill="#fff" filter="url(#a)" opacity=".4077"/>
  <path transform="matrix(.31133 0 0 .34113 38.15 128.35)" d="m574.86,399.82-14.967-5.557-13.063,9.1792 .6599-15.952-12.767-9.5869 15.375-4.3018 5.1726-15.104 8.8424,13.293 15.963.25196-9.9101,12.517z" fill="url(#b)"/>
  <path transform="matrix(.30422 0 0 .33335 42.447 132.12)" d="m588.67 410-25.165-16.793 9.083 22.674-16.451-21.722-14.79 23.017 8.2698-26.578-27.145 18.683 23.963-25.396-37.195-9.0475 38.566 1.7458-23.657-26.741 29.059 21.64-1.472-33.497 8.8401 32.545 22.047-26.248-15.527 29.809 36.172-13.514-32.99 20.227 28.876 9.3706-30.247-2.0688z" fill="#fff" filter="url(#a)" opacity=".4077"/>
  <path transform="matrix(.76786 0 0 .84136 -215.99 -63.582)" d="m588.67 410-25.165-16.793 9.083 22.674-16.451-21.722-14.79 23.017 8.2698-26.578-27.145 18.683 23.963-25.396-37.195-9.0475 38.566 1.7458-23.657-26.741 29.059 21.64-1.472-33.497 8.8401 32.545 22.047-26.248-15.527 29.809 36.172-13.514-32.99 20.227 28.876 9.3706-30.247-2.0688z" fill="#fff" filter="url(#a)" opacity=".4077"/>
  <path transform="matrix(.31133 0 0 .34113 166.09 -98.026)" d="m574.86,399.82-14.967-5.557-13.063,9.1792 .6599-15.952-12.767-9.5869 15.375-4.3018 5.1726-15.104 8.8424,13.293 15.963.25196-9.9101,12.517z" fill="url(#b)"/>
  <path transform="matrix(.30422 0 0 .33335 170.39 -94.254)" d="m588.67 410-25.165-16.793 9.083 22.674-16.451-21.722-14.79 23.017 8.2698-26.578-27.145 18.683 23.963-25.396-37.195-9.0475 38.566 1.7458-23.657-26.741 29.059 21.64-1.472-33.497 8.8401 32.545 22.047-26.248-15.527 29.809 36.172-13.514-32.99 20.227 28.876 9.3706-30.247-2.0688z" fill="#fff" filter="url(#a)" opacity=".4077"/>
  <path transform="matrix(.76786 0 0 .84136 -88.045 -289.95)" d="m588.67 410-25.165-16.793 9.083 22.674-16.451-21.722-14.79 23.017 8.2698-26.578-27.145 18.683 23.963-25.396-37.195-9.0475 38.566 1.7458-23.657-26.741 29.059 21.64-1.472-33.497 8.8401 32.545 22.047-26.248-15.527 29.809 36.172-13.514-32.99 20.227 28.876 9.3706-30.247-2.0688z" fill="#fff" filter="url(#a)" opacity=".4077"/>
  <path transform="matrix(.31133 0 0 .34113 296.24 -76.278)" d="m574.86,399.82-14.967-5.557-13.063,9.1792 .6599-15.952-12.767-9.5869 15.375-4.3018 5.1726-15.104 8.8424,13.293 15.963.25196-9.9101,12.517z" fill="url(#b)"/>
  <path transform="matrix(.30422 0 0 .33335 300.54 -72.506)" d="m588.67 410-25.165-16.793 9.083 22.674-16.451-21.722-14.79 23.017 8.2698-26.578-27.145 18.683 23.963-25.396-37.195-9.0475 38.566 1.7458-23.657-26.741 29.059 21.64-1.472-33.497 8.8401 32.545 22.047-26.248-15.527 29.809 36.172-13.514-32.99 20.227 28.876 9.3706-30.247-2.0688z" fill="#fff" filter="url(#a)" opacity=".4077"/>
  <path transform="matrix(.76786 0 0 .84136 42.106 -268.21)" d="m588.67 410-25.165-16.793 9.083 22.674-16.451-21.722-14.79 23.017 8.2698-26.578-27.145 18.683 23.963-25.396-37.195-9.0475 38.566 1.7458-23.657-26.741 29.059 21.64-1.472-33.497 8.8401 32.545 22.047-26.248-15.527 29.809 36.172-13.514-32.99 20.227 28.876 9.3706-30.247-2.0688z" fill="#fff" filter="url(#a)" opacity=".4077"/>
  <path transform="matrix(.31133 0 0 .34113 174.75 247.5)" d="m574.86,399.82-14.967-5.557-13.063,9.1792 .6599-15.952-12.767-9.5869 15.375-4.3018 5.1726-15.104 8.8424,13.293 15.963.25196-9.9101,12.517z" fill="url(#b)"/>
  <path transform="matrix(.30422 0 0 .33335 179.04 251.27)" d="m588.67 410-25.165-16.793 9.083 22.674-16.451-21.722-14.79 23.017 8.2698-26.578-27.145 18.683 23.963-25.396-37.195-9.0475 38.566 1.7458-23.657-26.741 29.059 21.64-1.472-33.497 8.8401 32.545 22.047-26.248-15.527 29.809 36.172-13.514-32.99 20.227 28.876 9.3706-30.247-2.0688z" fill="#fff" filter="url(#a)" opacity=".4077"/>
  <path transform="matrix(.76786 0 0 .84136 -79.39 55.572)" d="m588.67 410-25.165-16.793 9.083 22.674-16.451-21.722-14.79 23.017 8.2698-26.578-27.145 18.683 23.963-25.396-37.195-9.0475 38.566 1.7458-23.657-26.741 29.059 21.64-1.472-33.497 8.8401 32.545 22.047-26.248-15.527 29.809 36.172-13.514-32.99 20.227 28.876 9.3706-30.247-2.0688z" fill="#fff" filter="url(#a)" opacity=".4077"/>
  <path transform="matrix(.31133 0 0 .34113 276.11 141.57)" d="m574.86,399.82-14.967-5.557-13.063,9.1792 .6599-15.952-12.767-9.5869 15.375-4.3018 5.1726-15.104 8.8424,13.293 15.963.25196-9.9101,12.517z" fill="url(#b)"/>
  <path transform="matrix(.30422 0 0 .33335 280.4 145.35)" d="m588.67 410-25.165-16.793 9.083 22.674-16.451-21.722-14.79 23.017 8.2698-26.578-27.145 18.683 23.963-25.396-37.195-9.0475 38.566 1.7458-23.657-26.741 29.059 21.64-1.472-33.497 8.8401 32.545 22.047-26.248-15.527 29.809 36.172-13.514-32.99 20.227 28.876 9.3706-30.247-2.0688z" fill="#fff" filter="url(#a)" opacity=".4077"/>
  <path transform="matrix(.76786 0 0 .84136 21.967 -50.354)" d="m588.67 410-25.165-16.793 9.083 22.674-16.451-21.722-14.79 23.017 8.2698-26.578-27.145 18.683 23.963-25.396-37.195-9.0475 38.566 1.7458-23.657-26.741 29.059 21.64-1.472-33.497 8.8401 32.545 22.047-26.248-15.527 29.809 36.172-13.514-32.99 20.227 28.876 9.3706-30.247-2.0688z" fill="#fff" filter="url(#a)" opacity=".4077"/>
  <path transform="matrix(.31133 0 0 .34113 224.16 -158.91)" d="m574.86,399.82-14.967-5.557-13.063,9.1792 .6599-15.952-12.767-9.5869 15.375-4.3018 5.1726-15.104 8.8424,13.293 15.963.25196-9.9101,12.517z" fill="url(#b)"/>
  <path transform="matrix(.30422 0 0 .33335 228.45 -155.13)" d="m588.67 410-25.165-16.793 9.083 22.674-16.451-21.722-14.79 23.017 8.2698-26.578-27.145 18.683 23.963-25.396-37.195-9.0475 38.566 1.7458-23.657-26.741 29.059 21.64-1.472-33.497 8.8401 32.545 22.047-26.248-15.527 29.809 36.172-13.514-32.99 20.227 28.876 9.3706-30.247-2.0688z" fill="#fff" filter="url(#a)" opacity=".4077"/>
  <path transform="matrix(.76786 0 0 .84136 -29.983 -350.83)" d="m588.67 410-25.165-16.793 9.083 22.674-16.451-21.722-14.79 23.017 8.2698-26.578-27.145 18.683 23.963-25.396-37.195-9.0475 38.566 1.7458-23.657-26.741 29.059 21.64-1.472-33.497 8.8401 32.545 22.047-26.248-15.527 29.809 36.172-13.514-32.99 20.227 28.876 9.3706-30.247-2.0688z" fill="#fff" filter="url(#a)" opacity=".4077"/>
  <path transform="matrix(.31133 0 0 .34113 136.52 -45.376)" d="m574.86,399.82-14.967-5.557-13.063,9.1792 .6599-15.952-12.767-9.5869 15.375-4.3018 5.1726-15.104 8.8424,13.293 15.963.25196-9.9101,12.517z" fill="url(#b)"/>
  <path transform="matrix(.30422 0 0 .33335 140.82 -41.604)" d="m588.67 410-25.165-16.793 9.083 22.674-16.451-21.722-14.79 23.017 8.2698-26.578-27.145 18.683 23.963-25.396-37.195-9.0475 38.566 1.7458-23.657-26.741 29.059 21.64-1.472-33.497 8.8401 32.545 22.047-26.248-15.527 29.809 36.172-13.514-32.99 20.227 28.876 9.3706-30.247-2.0688z" fill="#fff" filter="url(#a)" opacity=".4077"/>
  <path transform="matrix(.76786 0 0 .84136 -117.61 -237.3)" d="m588.67 410-25.165-16.793 9.083 22.674-16.451-21.722-14.79 23.017 8.2698-26.578-27.145 18.683 23.963-25.396-37.195-9.0475 38.566 1.7458-23.657-26.741 29.059 21.64-1.472-33.497 8.8401 32.545 22.047-26.248-15.527 29.809 36.172-13.514-32.99 20.227 28.876 9.3706-30.247-2.0688z" fill="#fff" filter="url(#a)" opacity=".4077"/>
  <path transform="matrix(.31133 0 0 .34113 226.98 151.94)" d="m574.86,399.82-14.967-5.557-13.063,9.1792 .6599-15.952-12.767-9.5869 15.375-4.3018 5.1726-15.104 8.8424,13.293 15.963.25196-9.9101,12.517z" fill="url(#b)"/>
  <path transform="matrix(.30422 0 0 .33335 231.27 155.71)" d="m588.67 410-25.165-16.793 9.083 22.674-16.451-21.722-14.79 23.017 8.2698-26.578-27.145 18.683 23.963-25.396-37.195-9.0475 38.566 1.7458-23.657-26.741 29.059 21.64-1.472-33.497 8.8401 32.545 22.047-26.248-15.527 29.809 36.172-13.514-32.99 20.227 28.876 9.3706-30.247-2.0688z" fill="#fff" filter="url(#a)" opacity=".4077"/>
  <path transform="matrix(.76786 0 0 .84136 -27.163 -39.991)" d="m588.67 410-25.165-16.793 9.083 22.674-16.451-21.722-14.79 23.017 8.2698-26.578-27.145 18.683 23.963-25.396-37.195-9.0475 38.566 1.7458-23.657-26.741 29.059 21.64-1.472-33.497 8.8401 32.545 22.047-26.248-15.527 29.809 36.172-13.514-32.99 20.227 28.876 9.3706-30.247-2.0688z" fill="#fff" filter="url(#a)" opacity=".4077"/>
  <path transform="matrix(.31133 0 0 .34113 165.41 159.04)" d="m574.86,399.82-14.967-5.557-13.063,9.1792 .6599-15.952-12.767-9.5869 15.375-4.3018 5.1726-15.104 8.8424,13.293 15.963.25196-9.9101,12.517z" fill="url(#b)"/>
  <path transform="matrix(.30422 0 0 .33335 169.7 162.81)" d="m588.67 410-25.165-16.793 9.083 22.674-16.451-21.722-14.79 23.017 8.2698-26.578-27.145 18.683 23.963-25.396-37.195-9.0475 38.566 1.7458-23.657-26.741 29.059 21.64-1.472-33.497 8.8401 32.545 22.047-26.248-15.527 29.809 36.172-13.514-32.99 20.227 28.876 9.3706-30.247-2.0688z" fill="#fff" filter="url(#a)" opacity=".4077"/>
  <path transform="matrix(.76786 0 0 .84136 -88.732 -32.887)" d="m588.67 410-25.165-16.793 9.083 22.674-16.451-21.722-14.79 23.017 8.2698-26.578-27.145 18.683 23.963-25.396-37.195-9.0475 38.566 1.7458-23.657-26.741 29.059 21.64-1.472-33.497 8.8401 32.545 22.047-26.248-15.527 29.809 36.172-13.514-32.99 20.227 28.876 9.3706-30.247-2.0688z" fill="#fff" filter="url(#a)" opacity=".4077"/>
  <path transform="matrix(.31133 0 0 .34113 102.72 169.1)" d="m574.86,399.82-14.967-5.557-13.063,9.1792 .6599-15.952-12.767-9.5869 15.375-4.3018 5.1726-15.104 8.8424,13.293 15.963.25196-9.9101,12.517z" fill="url(#b)"/>
  <path transform="matrix(.30422 0 0 .33335 107.01 172.87)" d="m588.67 410-25.165-16.793 9.083 22.674-16.451-21.722-14.79 23.017 8.2698-26.578-27.145 18.683 23.963-25.396-37.195-9.0475 38.566 1.7458-23.657-26.741 29.059 21.64-1.472-33.497 8.8401 32.545 22.047-26.248-15.527 29.809 36.172-13.514-32.99 20.227 28.876 9.3706-30.247-2.0688z" fill="#fff" filter="url(#a)" opacity=".4077"/>
  <path transform="matrix(.76786 0 0 .84136 -151.42 -22.825)" d="m588.67 410-25.165-16.793 9.083 22.674-16.451-21.722-14.79 23.017 8.2698-26.578-27.145 18.683 23.963-25.396-37.195-9.0475 38.566 1.7458-23.657-26.741 29.059 21.64-1.472-33.497 8.8401 32.545 22.047-26.248-15.527 29.809 36.172-13.514-32.99 20.227 28.876 9.3706-30.247-2.0688z" fill="#fff" filter="url(#a)" opacity=".4077"/>
  <path transform="matrix(.31133 0 0 .34113 1.2103 188.63)" d="m574.86,399.82-14.967-5.557-13.063,9.1792 .6599-15.952-12.767-9.5869 15.375-4.3018 5.1726-15.104 8.8424,13.293 15.963.25196-9.9101,12.517z" fill="url(#b)"/>
  <path transform="matrix(.30422 0 0 .33335 5.5069 192.4)" d="m588.67 410-25.165-16.793 9.083 22.674-16.451-21.722-14.79 23.017 8.2698-26.578-27.145 18.683 23.963-25.396-37.195-9.0475 38.566 1.7458-23.657-26.741 29.059 21.64-1.472-33.497 8.8401 32.545 22.047-26.248-15.527 29.809 36.172-13.514-32.99 20.227 28.876 9.3706-30.247-2.0688z" fill="#fff" filter="url(#a)" opacity=".4077"/>
  <path transform="matrix(.76786 0 0 .84136 -252.93 -3.2962)" d="m588.67 410-25.165-16.793 9.083 22.674-16.451-21.722-14.79 23.017 8.2698-26.578-27.145 18.683 23.963-25.396-37.195-9.0475 38.566 1.7458-23.657-26.741 29.059 21.64-1.472-33.497 8.8401 32.545 22.047-26.248-15.527 29.809 36.172-13.514-32.99 20.227 28.876 9.3706-30.247-2.0688z" fill="#fff" filter="url(#a)" opacity=".4077"/>
  <path transform="matrix(.31133 0 0 .34113 184.76 -39.419)" d="m574.86,399.82-14.967-5.557-13.063,9.1792 .6599-15.952-12.767-9.5869 15.375-4.3018 5.1726-15.104 8.8424,13.293 15.963.25196-9.9101,12.517z" fill="url(#b)"/>
  <path transform="matrix(.30422 0 0 .33335 189.05 -35.648)" d="m588.67 410-25.165-16.793 9.083 22.674-16.451-21.722-14.79 23.017 8.2698-26.578-27.145 18.683 23.963-25.396-37.195-9.0475 38.566 1.7458-23.657-26.741 29.059 21.64-1.472-33.497 8.8401 32.545 22.047-26.248-15.527 29.809 36.172-13.514-32.99 20.227 28.876 9.3706-30.247-2.0688z" fill="#fff" filter="url(#a)" opacity=".4077"/>
  <path transform="matrix(.76786 0 0 .84136 -69.382 -231.35)" d="m588.67 410-25.165-16.793 9.083 22.674-16.451-21.722-14.79 23.017 8.2698-26.578-27.145 18.683 23.963-25.396-37.195-9.0475 38.566 1.7458-23.657-26.741 29.059 21.64-1.472-33.497 8.8401 32.545 22.047-26.248-15.527 29.809 36.172-13.514-32.99 20.227 28.876 9.3706-30.247-2.0688z" fill="#fff" filter="url(#a)" opacity=".4077"/>
  <path transform="matrix(.31133 0 0 .34113 103.26 55.673)" d="m574.86,399.82-14.967-5.557-13.063,9.1792 .6599-15.952-12.767-9.5869 15.375-4.3018 5.1726-15.104 8.8424,13.293 15.963.25196-9.9101,12.517z" fill="url(#b)"/>
  <path transform="matrix(.30422 0 0 .33335 107.55 59.444)" d="m588.67 410-25.165-16.793 9.083 22.674-16.451-21.722-14.79 23.017 8.2698-26.578-27.145 18.683 23.963-25.396-37.195-9.0475 38.566 1.7458-23.657-26.741 29.059 21.64-1.472-33.497 8.8401 32.545 22.047-26.248-15.527 29.809 36.172-13.514-32.99 20.227 28.876 9.3706-30.247-2.0688z" fill="#fff" filter="url(#a)" opacity=".4077"/>
  <path transform="matrix(.76786 0 0 .84136 -150.88 -136.26)" d="m588.67 410-25.165-16.793 9.083 22.674-16.451-21.722-14.79 23.017 8.2698-26.578-27.145 18.683 23.963-25.396-37.195-9.0475 38.566 1.7458-23.657-26.741 29.059 21.64-1.472-33.497 8.8401 32.545 22.047-26.248-15.527 29.809 36.172-13.514-32.99 20.227 28.876 9.3706-30.247-2.0688z" fill="#fff" filter="url(#a)" opacity=".4077"/>
  <path transform="matrix(.31133 0 0 .34113 272.25 -127.6)" d="m574.86,399.82-14.967-5.557-13.063,9.1792 .6599-15.952-12.767-9.5869 15.375-4.3018 5.1726-15.104 8.8424,13.293 15.963.25196-9.9101,12.517z" fill="url(#b)"/>
  <path transform="matrix(.30422 0 0 .33335 276.55 -123.83)" d="m588.67 410-25.165-16.793 9.083 22.674-16.451-21.722-14.79 23.017 8.2698-26.578-27.145 18.683 23.963-25.396-37.195-9.0475 38.566 1.7458-23.657-26.741 29.059 21.64-1.472-33.497 8.8401 32.545 22.047-26.248-15.527 29.809 36.172-13.514-32.99 20.227 28.876 9.3706-30.247-2.0688z" fill="#fff" filter="url(#a)" opacity=".4077"/>
  <path transform="matrix(.76786 0 0 .84136 18.114 -319.52)" d="m588.67 410-25.165-16.793 9.083 22.674-16.451-21.722-14.79 23.017 8.2698-26.578-27.145 18.683 23.963-25.396-37.195-9.0475 38.566 1.7458-23.657-26.741 29.059 21.64-1.472-33.497 8.8401 32.545 22.047-26.248-15.527 29.809 36.172-13.514-32.99 20.227 28.876 9.3706-30.247-2.0688z" fill="#fff" filter="url(#a)" opacity=".4077"/>
  <path transform="matrix(.31133 0 0 .34113 251.79 43.447)" d="m574.86,399.82-14.967-5.557-13.063,9.1792 .6599-15.952-12.767-9.5869 15.375-4.3018 5.1726-15.104 8.8424,13.293 15.963.25196-9.9101,12.517z" fill="url(#b)"/>
  <path transform="matrix(.30422 0 0 .33335 256.08 47.219)" d="m588.67 410-25.165-16.793 9.083 22.674-16.451-21.722-14.79 23.017 8.2698-26.578-27.145 18.683 23.963-25.396-37.195-9.0475 38.566 1.7458-23.657-26.741 29.059 21.64-1.472-33.497 8.8401 32.545 22.047-26.248-15.527 29.809 36.172-13.514-32.99 20.227 28.876 9.3706-30.247-2.0688z" fill="#fff" filter="url(#a)" opacity=".4077"/>
  <path transform="matrix(.76786 0 0 .84136 -2.3525 -148.48)" d="m588.67 410-25.165-16.793 9.083 22.674-16.451-21.722-14.79 23.017 8.2698-26.578-27.145 18.683 23.963-25.396-37.195-9.0475 38.566 1.7458-23.657-26.741 29.059 21.64-1.472-33.497 8.8401 32.545 22.047-26.248-15.527 29.809 36.172-13.514-32.99 20.227 28.876 9.3706-30.247-2.0688z" fill="#fff" filter="url(#a)" opacity=".4077"/>
  <path transform="matrix(.31133 0 0 .34113 252.54 -251.44)" d="m574.86,399.82-14.967-5.557-13.063,9.1792 .6599-15.952-12.767-9.5869 15.375-4.3018 5.1726-15.104 8.8424,13.293 15.963.25196-9.9101,12.517z" fill="url(#b)"/>
  <path transform="matrix(.30422 0 0 .33335 256.84 -247.67)" d="m588.67 410-25.165-16.793 9.083 22.674-16.451-21.722-14.79 23.017 8.2698-26.578-27.145 18.683 23.963-25.396-37.195-9.0475 38.566 1.7458-23.657-26.741 29.059 21.64-1.472-33.497 8.8401 32.545 22.047-26.248-15.527 29.809 36.172-13.514-32.99 20.227 28.876 9.3706-30.247-2.0688z" fill="#fff" filter="url(#a)" opacity=".4077"/>
  <path transform="matrix(.76786 0 0 .84136 -1.5982 -443.37)" d="m588.67 410-25.165-16.793 9.083 22.674-16.451-21.722-14.79 23.017 8.2698-26.578-27.145 18.683 23.963-25.396-37.195-9.0475 38.566 1.7458-23.657-26.741 29.059 21.64-1.472-33.497 8.8401 32.545 22.047-26.248-15.527 29.809 36.172-13.514-32.99 20.227 28.876 9.3706-30.247-2.0688z" fill="#fff" filter="url(#a)" opacity=".4077"/>
  <path transform="matrix(.31133 0 0 .34113 205.62 -183.09)" d="m574.86,399.82-14.967-5.557-13.063,9.1792 .6599-15.952-12.767-9.5869 15.375-4.3018 5.1726-15.104 8.8424,13.293 15.963.25196-9.9101,12.517z" fill="url(#b)"/>
  <path transform="matrix(.30422 0 0 .33335 209.92 -179.32)" d="m588.67 410-25.165-16.793 9.083 22.674-16.451-21.722-14.79 23.017 8.2698-26.578-27.145 18.683 23.963-25.396-37.195-9.0475 38.566 1.7458-23.657-26.741 29.059 21.64-1.472-33.497 8.8401 32.545 22.047-26.248-15.527 29.809 36.172-13.514-32.99 20.227 28.876 9.3706-30.247-2.0688z" fill="#fff" filter="url(#a)" opacity=".4077"/>
  <path transform="matrix(.76786 0 0 .84136 -48.515 -375.02)" d="m588.67 410-25.165-16.793 9.083 22.674-16.451-21.722-14.79 23.017 8.2698-26.578-27.145 18.683 23.963-25.396-37.195-9.0475 38.566 1.7458-23.657-26.741 29.059 21.64-1.472-33.497 8.8401 32.545 22.047-26.248-15.527 29.809 36.172-13.514-32.99 20.227 28.876 9.3706-30.247-2.0688z" fill="#fff" filter="url(#a)" opacity=".4077"/>
  <path transform="matrix(.31133 0 0 .34113 302.99 206.58)" d="m574.86,399.82-14.967-5.557-13.063,9.1792 .6599-15.952-12.767-9.5869 15.375-4.3018 5.1726-15.104 8.8424,13.293 15.963.25196-9.9101,12.517z" fill="url(#b)"/>
  <path transform="matrix(.30422 0 0 .33335 307.28 210.35)" d="m588.67 410-25.165-16.793 9.083 22.674-16.451-21.722-14.79 23.017 8.2698-26.578-27.145 18.683 23.963-25.396-37.195-9.0475 38.566 1.7458-23.657-26.741 29.059 21.64-1.472-33.497 8.8401 32.545 22.047-26.248-15.527 29.809 36.172-13.514-32.99 20.227 28.876 9.3706-30.247-2.0688z" fill="#fff" filter="url(#a)" opacity=".4077"/>
  <path transform="matrix(.76786 0 0 .84136 48.85 14.649)" d="m588.67 410-25.165-16.793 9.083 22.674-16.451-21.722-14.79 23.017 8.2698-26.578-27.145 18.683 23.963-25.396-37.195-9.0475 38.566 1.7458-23.657-26.741 29.059 21.64-1.472-33.497 8.8401 32.545 22.047-26.248-15.527 29.809 36.172-13.514-32.99 20.227 28.876 9.3706-30.247-2.0688z" fill="#fff" filter="url(#a)" opacity=".4077"/>
  <path transform="matrix(.31133 0 0 .34113 210.6 120.3)" d="m574.86,399.82-14.967-5.557-13.063,9.1792 .6599-15.952-12.767-9.5869 15.375-4.3018 5.1726-15.104 8.8424,13.293 15.963.25196-9.9101,12.517z" fill="url(#b)"/>
  <path transform="matrix(.30422 0 0 .33335 214.9 124.07)" d="m588.67 410-25.165-16.793 9.083 22.674-16.451-21.722-14.79 23.017 8.2698-26.578-27.145 18.683 23.963-25.396-37.195-9.0475 38.566 1.7458-23.657-26.741 29.059 21.64-1.472-33.497 8.8401 32.545 22.047-26.248-15.527 29.809 36.172-13.514-32.99 20.227 28.876 9.3706-30.247-2.0688z" fill="#fff" filter="url(#a)" opacity=".4077"/>
  <path transform="matrix(.76786 0 0 .84136 -43.539 -71.626)" d="m588.67 410-25.165-16.793 9.083 22.674-16.451-21.722-14.79 23.017 8.2698-26.578-27.145 18.683 23.963-25.396-37.195-9.0475 38.566 1.7458-23.657-26.741 29.059 21.64-1.472-33.497 8.8401 32.545 22.047-26.248-15.527 29.809 36.172-13.514-32.99 20.227 28.876 9.3706-30.247-2.0688z" fill="#fff" filter="url(#a)" opacity=".4077"/>
  <path transform="matrix(.31133 0 0 .34113 92.317 115.03)" d="m574.86,399.82-14.967-5.557-13.063,9.1792 .6599-15.952-12.767-9.5869 15.375-4.3018 5.1726-15.104 8.8424,13.293 15.963.25196-9.9101,12.517z" fill="url(#b)"/>
  <path transform="matrix(.30422 0 0 .33335 96.614 118.8)" d="m588.67 410-25.165-16.793 9.083 22.674-16.451-21.722-14.79 23.017 8.2698-26.578-27.145 18.683 23.963-25.396-37.195-9.0475 38.566 1.7458-23.657-26.741 29.059 21.64-1.472-33.497 8.8401 32.545 22.047-26.248-15.527 29.809 36.172-13.514-32.99 20.227 28.876 9.3706-30.247-2.0688z" fill="#fff" filter="url(#a)" opacity=".4077"/>
  <path transform="matrix(.76786 0 0 .84136 -161.82 -76.902)" d="m588.67 410-25.165-16.793 9.083 22.674-16.451-21.722-14.79 23.017 8.2698-26.578-27.145 18.683 23.963-25.396-37.195-9.0475 38.566 1.7458-23.657-26.741 29.059 21.64-1.472-33.497 8.8401 32.545 22.047-26.248-15.527 29.809 36.172-13.514-32.99 20.227 28.876 9.3706-30.247-2.0688z" fill="#fff" filter="url(#a)" opacity=".4077"/>
  <path transform="matrix(.31133 0 0 .34113 232.82 205.07)" d="m574.86,399.82-14.967-5.557-13.063,9.1792 .6599-15.952-12.767-9.5869 15.375-4.3018 5.1726-15.104 8.8424,13.293 15.963.25196-9.9101,12.517z" fill="url(#b)"/>
  <path transform="matrix(.30422 0 0 .33335 237.12 208.85)" d="m588.67 410-25.165-16.793 9.083 22.674-16.451-21.722-14.79 23.017 8.2698-26.578-27.145 18.683 23.963-25.396-37.195-9.0475 38.566 1.7458-23.657-26.741 29.059 21.64-1.472-33.497 8.8401 32.545 22.047-26.248-15.527 29.809 36.172-13.514-32.99 20.227 28.876 9.3706-30.247-2.0688z" fill="#fff" filter="url(#a)" opacity=".4077"/>
  <path transform="matrix(.76786 0 0 .84136 -21.316 13.146)" d="m588.67 410-25.165-16.793 9.083 22.674-16.451-21.722-14.79 23.017 8.2698-26.578-27.145 18.683 23.963-25.396-37.195-9.0475 38.566 1.7458-23.657-26.741 29.059 21.64-1.472-33.497 8.8401 32.545 22.047-26.248-15.527 29.809 36.172-13.514-32.99 20.227 28.876 9.3706-30.247-2.0688z" fill="#fff" filter="url(#a)" opacity=".4077"/>
  <path transform="matrix(.31133 0 0 .34113 145.37 209.76)" d="m574.86,399.82-14.967-5.557-13.063,9.1792 .6599-15.952-12.767-9.5869 15.375-4.3018 5.1726-15.104 8.8424,13.293 15.963.25196-9.9101,12.517z" fill="url(#b)"/>
  <path transform="matrix(.30422 0 0 .33335 149.66 213.54)" d="m588.67 410-25.165-16.793 9.083 22.674-16.451-21.722-14.79 23.017 8.2698-26.578-27.145 18.683 23.963-25.396-37.195-9.0475 38.566 1.7458-23.657-26.741 29.059 21.64-1.472-33.497 8.8401 32.545 22.047-26.248-15.527 29.809 36.172-13.514-32.99 20.227 28.876 9.3706-30.247-2.0688z" fill="#fff" filter="url(#a)" opacity=".4077"/>
  <path transform="matrix(.76786 0 0 .84136 -108.77 17.836)" d="m588.67 410-25.165-16.793 9.083 22.674-16.451-21.722-14.79 23.017 8.2698-26.578-27.145 18.683 23.963-25.396-37.195-9.0475 38.566 1.7458-23.657-26.741 29.059 21.64-1.472-33.497 8.8401 32.545 22.047-26.248-15.527 29.809 36.172-13.514-32.99 20.227 28.876 9.3706-30.247-2.0688z" fill="#fff" filter="url(#a)" opacity=".4077"/>
  <path transform="matrix(.31133 0 0 .34113 34.064 231.06)" d="m574.86,399.82-14.967-5.557-13.063,9.1792 .6599-15.952-12.767-9.5869 15.375-4.3018 5.1726-15.104 8.8424,13.293 15.963.25196-9.9101,12.517z" fill="url(#b)"/>
  <path transform="matrix(.30422 0 0 .33335 38.361 234.83)" d="m588.67 410-25.165-16.793 9.083 22.674-16.451-21.722-14.79 23.017 8.2698-26.578-27.145 18.683 23.963-25.396-37.195-9.0475 38.566 1.7458-23.657-26.741 29.059 21.64-1.472-33.497 8.8401 32.545 22.047-26.248-15.527 29.809 36.172-13.514-32.99 20.227 28.876 9.3706-30.247-2.0688z" fill="#fff" filter="url(#a)" opacity=".4077"/>
  <path transform="matrix(.76786 0 0 .84136 -220.07 39.13)" d="m588.67 410-25.165-16.793 9.083 22.674-16.451-21.722-14.79 23.017 8.2698-26.578-27.145 18.683 23.963-25.396-37.195-9.0475 38.566 1.7458-23.657-26.741 29.059 21.64-1.472-33.497 8.8401 32.545 22.047-26.248-15.527 29.809 36.172-13.514-32.99 20.227 28.876 9.3706-30.247-2.0688z" fill="#fff" filter="url(#a)" opacity=".4077"/>
  <path transform="matrix(.31133 0 0 .34113 144.45 116.71)" d="m574.86,399.82-14.967-5.557-13.063,9.1792 .6599-15.952-12.767-9.5869 15.375-4.3018 5.1726-15.104 8.8424,13.293 15.963.25196-9.9101,12.517z" fill="url(#b)"/>
  <path transform="matrix(.30422 0 0 .33335 148.75 120.48)" d="m588.67 410-25.165-16.793 9.083 22.674-16.451-21.722-14.79 23.017 8.2698-26.578-27.145 18.683 23.963-25.396-37.195-9.0475 38.566 1.7458-23.657-26.741 29.059 21.64-1.472-33.497 8.8401 32.545 22.047-26.248-15.527 29.809 36.172-13.514-32.99 20.227 28.876 9.3706-30.247-2.0688z" fill="#fff" filter="url(#a)" opacity=".4077"/>
  <path transform="matrix(.76786 0 0 .84136 -109.69 -75.22)" d="m588.67 410-25.165-16.793 9.083 22.674-16.451-21.722-14.79 23.017 8.2698-26.578-27.145 18.683 23.963-25.396-37.195-9.0475 38.566 1.7458-23.657-26.741 29.059 21.64-1.472-33.497 8.8401 32.545 22.047-26.248-15.527 29.809 36.172-13.514-32.99 20.227 28.876 9.3706-30.247-2.0688z" fill="#fff" filter="url(#a)" opacity=".4077"/>
  <path transform="matrix(.31133 0 0 .34113 334.83 167.23)" d="m574.86,399.82-14.967-5.557-13.063,9.1792 .6599-15.952-12.767-9.5869 15.375-4.3018 5.1726-15.104 8.8424,13.293 15.963.25196-9.9101,12.517z" fill="url(#b)"/>
  <path transform="matrix(.30422 0 0 .33335 339.13 171)" d="m588.67 410-25.165-16.793 9.083 22.674-16.451-21.722-14.79 23.017 8.2698-26.578-27.145 18.683 23.963-25.396-37.195-9.0475 38.566 1.7458-23.657-26.741 29.059 21.64-1.472-33.497 8.8401 32.545 22.047-26.248-15.527 29.809 36.172-13.514-32.99 20.227 28.876 9.3706-30.247-2.0688z" fill="#fff" filter="url(#a)" opacity=".4077"/>
  <path transform="matrix(.76786 0 0 .84136 80.691 -24.698)" d="m588.67 410-25.165-16.793 9.083 22.674-16.451-21.722-14.79 23.017 8.2698-26.578-27.145 18.683 23.963-25.396-37.195-9.0475 38.566 1.7458-23.657-26.741 29.059 21.64-1.472-33.497 8.8401 32.545 22.047-26.248-15.527 29.809 36.172-13.514-32.99 20.227 28.876 9.3706-30.247-2.0688z" fill="#fff" filter="url(#a)" opacity=".4077"/>
  <path transform="matrix(.31133 0 0 .34113 260.19 -80.838)" d="m574.86,399.82-14.967-5.557-13.063,9.1792 .6599-15.952-12.767-9.5869 15.375-4.3018 5.1726-15.104 8.8424,13.293 15.963.25196-9.9101,12.517z" fill="url(#b)"/>
  <path transform="matrix(.30422 0 0 .33335 264.49 -77.067)" d="m588.67 410-25.165-16.793 9.083 22.674-16.451-21.722-14.79 23.017 8.2698-26.578-27.145 18.683 23.963-25.396-37.195-9.0475 38.566 1.7458-23.657-26.741 29.059 21.64-1.472-33.497 8.8401 32.545 22.047-26.248-15.527 29.809 36.172-13.514-32.99 20.227 28.876 9.3706-30.247-2.0688z" fill="#fff" filter="url(#a)" opacity=".4077"/>
  <path transform="matrix(.76786 0 0 .84136 6.0528 -272.77)" d="m588.67 410-25.165-16.793 9.083 22.674-16.451-21.722-14.79 23.017 8.2698-26.578-27.145 18.683 23.963-25.396-37.195-9.0475 38.566 1.7458-23.657-26.741 29.059 21.64-1.472-33.497 8.8401 32.545 22.047-26.248-15.527 29.809 36.172-13.514-32.99 20.227 28.876 9.3706-30.247-2.0688z" fill="#fff" filter="url(#a)" opacity=".4077"/>
  <path transform="matrix(.31133 0 0 .34113 225.98 -122.18)" d="m574.86,399.82-14.967-5.557-13.063,9.1792 .6599-15.952-12.767-9.5869 15.375-4.3018 5.1726-15.104 8.8424,13.293 15.963.25196-9.9101,12.517z" fill="url(#b)"/>
  <path transform="matrix(.30422 0 0 .33335 230.28 -118.41)" d="m588.67 410-25.165-16.793 9.083 22.674-16.451-21.722-14.79 23.017 8.2698-26.578-27.145 18.683 23.963-25.396-37.195-9.0475 38.566 1.7458-23.657-26.741 29.059 21.64-1.472-33.497 8.8401 32.545 22.047-26.248-15.527 29.809 36.172-13.514-32.99 20.227 28.876 9.3706-30.247-2.0688z" fill="#fff" filter="url(#a)" opacity=".4077"/>
  <path transform="matrix(.76786 0 0 .84136 -28.158 -314.11)" d="m588.67 410-25.165-16.793 9.083 22.674-16.451-21.722-14.79 23.017 8.2698-26.578-27.145 18.683 23.963-25.396-37.195-9.0475 38.566 1.7458-23.657-26.741 29.059 21.64-1.472-33.497 8.8401 32.545 22.047-26.248-15.527 29.809 36.172-13.514-32.99 20.227 28.876 9.3706-30.247-2.0688z" fill="#fff" filter="url(#a)" opacity=".4077"/>
  <path transform="matrix(2.0216 0 0 2.2151 -712.34 -1030.2)" d="m588.67 410-25.165-16.793 9.083 22.674-16.451-21.722-14.79 23.017 8.2698-26.578-27.145 18.683 23.963-25.396-37.195-9.0475 38.566 1.7458-23.657-26.741 29.059 21.64-1.472-33.497 8.8401 32.545 22.047-26.248-15.527 29.809 36.172-13.514-32.99 20.227 28.876 9.3706-30.247-2.0688z" fill="#fff" filter="url(#a)" opacity=".4077"/>
  <path transform="matrix(1.1078 0 0 1.2139 -200.25 -643.51)" d="m574.86,399.82-14.967-5.557-13.063,9.1792 .6599-15.952-12.767-9.5869 15.375-4.3018 5.1726-15.104 8.8424,13.293 15.963.25196-9.9101,12.517z" fill="url(#b)" filter="url(#l)"/>
  <path transform="matrix(1.0041 0 0 1.1003 -141.41 -598.1)" d="m588.67 410-25.165-16.793 9.083 22.674-16.451-21.722-14.79 23.017 8.2698-26.578-27.145 18.683 23.963-25.396-37.195-9.0475 38.566 1.7458-23.657-26.741 29.059 21.64-1.472-33.497 8.8401 32.545 22.047-26.248-15.527 29.809 36.172-13.514-32.99 20.227 28.876 9.3706-30.247-2.0688z" fill="#fff" filter="url(#a)" opacity=".4077"/>
 </g>
</svg>
