<?xml version="1.0" encoding="UTF-8"?>
<svg viewBox="0 0 200.60287 199.67017" xmlns="http://www.w3.org/2000/svg">
 <defs>
  <filter id="e">
   <feGaussianBlur stdDeviation="1.1417"/>
  </filter>
  <filter id="f">
   <feGaussianBlur stdDeviation="3.3064"/>
  </filter>
  <filter id="d">
   <feGaussianBlur stdDeviation="1.4218"/>
  </filter>
  <filter id="c">
   <feGaussianBlur stdDeviation=".7109"/>
  </filter>
  <filter id="h">
   <feGaussianBlur stdDeviation=".5131"/>
  </filter>
  <filter id="g">
   <feGaussianBlur stdDeviation=".2701"/>
  </filter>
  <radialGradient id="b" cx="257.3" cy="126.03" r="62.4" gradientTransform="matrix(1.2486 1.7836 -1.497 1.048 124.68 -464.96)" gradientUnits="userSpaceOnUse">
   <stop stop-color="#fff" offset="0"/>
   <stop offset="1"/>
  </radialGradient>
  <radialGradient id="a" cx="130.27" cy="80.598" r="35.34" gradientTransform="matrix(1.1932 -.02998 .03099 1.233 181.77 -47.87)" gradientUnits="userSpaceOnUse">
   <stop stop-color="#fff" offset="0"/>
   <stop stop-color="#f2f2f2" offset=".6011"/>
   <stop stop-color="#808080" offset="1"/>
  </radialGradient>
 </defs>
 <path transform="matrix(1.5966 0 0 1.5966 -337.52 -130.32)" d="m335.71 144.15c0 34.123-27.662 61.786-61.786 61.786s-61.786-27.662-61.786-61.786 27.662-61.786 61.786-61.786 61.786 27.662 61.786 61.786z" fill="url(#b)" stroke="#ccc"/>
 <path transform="matrix(2.8117 0 0 2.8117 -867.49 -29.02)" d="m342.1423,79.99791-.50776-.69153-.99701-.0604c-.54836-.0332-2.64827-.13741-4.66644-.23149s-3.71041-.21191-3.7605-.26184-.0739-.18095-.0529-.29114c.0317-.1668.16837-.20936.81635-.25429l.77824-.054-1.4268-.87978-1.4268-.87978-1.95544-.0764c-1.07549-.042-2.01516-.11331-2.08816-.15843s-.11461-.17334-.0925-.28495c.0375-.18887.15488-.20183 1.69666-.18726l1.65638.0157-.25603-.24114c-.83803-.78928-3.0991-2.74201-3.29781-2.84809-.16068-.0858-1.0584-.12585-2.8198-.12585-2.05928,0-2.60904-.0301-2.70707-.14821-.24084-.2902-.0227-.48742.57636-.52122l.56854-.0321-1.50766-1.67283c-.8292-.92006-1.74363-1.9278-2.03205-2.23943l-.52439-.56661-.73155-.002c-.81682-.002-1.04078-.0904-.98402-.38902 .0315-.16591.16313-.21275.72159-.25687l.68303-.054-1.43947-2.05056-1.43946-2.05057-.62609-.0325c-.45199-.0235-.64443-.0803-.69207-.20447-.10081-.26273.26978-.46451.85312-.46451 .28544,0 .519-.0436.519-.0968 0-.15018-1.41103-5.23545-1.46871-5.29312-.0281-.0281-.61975-.0683-1.31478-.0894-1.32063-.04-1.55712-.11534-1.35792-.43248 .0875-.13932.29649-.19389.83399-.21781 .48373-.0215.71723-.0757.71723-.16645 0-.074-.2671-1.34664-.59355-2.82809s-.59357-2.70568-.59359-2.72052-.4069-.027-.90418-.027c-.67202,0-.93863-.0416-1.03849-.16189-.10719-.12916-.10719-.19462 0-.32377 .10191-.1228.37824-.16189 1.14436-.16189 .96074,0 1.01244-.0119 1.05972-.24283 .0273-.13356.08-1.54197.11708-3.12981l.0674-2.88698h-.93155c-.95951,0-1.34906-.10907-1.34906-.37773 0-.21984.34933-.37774.8357-.37774h.41819l.30074-2.23943c.16541-1.23169.32645-2.37299.35787-2.53623 .05-.25992.0236-.29679-.21296-.29679-.32373,0-.54181-.22939-.44872-.47198 .0532-.13872.224-.17557.81361-.17557 .67166,0 .75644-.0243.84839-.24283 .13735-.32649 1.72793-5.85478 1.72793-6.00565 0-.0655-.12294-.11906-.2732-.11906-.31793,0-.45723-.25574-.26528-.48703 .0964-.11614.36079-.16089.95641-.16189l.82321-.001 1.2951-2.12118c.7123-1.16665 1.31039-2.18382 1.32909-2.26038 .0251-.10271-.18676-.14748-.80827-.17084-.72458-.0272-.84767-.06-.88103-.23456-.061-.31937.17439-.38725 1.34928-.38902l1.097-.002 1.84394-2.10025c1.01417-1.15514 1.84394-2.15075 1.84394-2.21246s-.25067-.11219-.58037-.11219c-.65798,0-.95198-.19978-.71472-.48566 .0974-.11736.35527-.16189.9376-.16189h.80325l1.72016-1.46664c.94609-.80666 1.69554-1.50648 1.66545-1.55517s-.0251-.16575.0111-.26014c.0549-.14312.27197-.17163 1.30644-.17163h1.24059l1.90466-1.14296c1.04756-.62863 2.00179-1.25961 2.1205-1.40217 .21235-.255.26053-.2611 2.96793-.37572 1.8848-.0798 2.77642-.15659 2.82936-.24368l.54244-.9366c.3298-.57391.53512-.81949.70564-.84398 .40902-.0588.38807.25815-.0722,1.0919l-.43944.79606 1.69764-.0483c.9337-.0266 1.73171-.0794 1.77336-.11746s.21164-.4576.37774-.93237c.24557-.7019.34747-.86966.54532-.89776 .37306-.053.39436.20998.0862,1.06426l-.28043.77742 1.70225-.0786c.93624-.0432 1.71701-.0922 1.73504-.10894s-.0912-.33563-.24283-.70871c-.31862-.78414-.34342-1.05356-.10537-1.14491 .24952-.0958.42445.13769.7819,1.04343l.31944.80943 1.76552-.054c.97104-.0297 2.49329-.054 3.38278-.054 1.46002,0 1.62084.0185 1.6541.1906 .0248.12856-.0704.2357-.2925.32909l-.32935.13848 1.80506,1.01096c.99278.55602 1.8779,1.0677 1.96694,1.13707 .12351.0962.58406.096 1.94264-.0008 .97941-.0698 1.84146-.10516 1.91566-.0786s.1349.13741.1349.24627c0,.28992-.18388.36642-1.02528.42652l-.75547.054 1.7765,1.32208 1.7765,1.32207h1.25207 1.25207l.24243.32791c.13334.18034 1.04147,1.22279 2.01807,2.31654 1.219,1.36522 1.8261,1.96927 1.9366,1.92686 .0885-.034.28226-.0313.43052.006 .33492.084.3729.48843.0537.57189-.11871.031-.21585.0799-.21585.10862s.78671,1.11505 1.74825,2.41413l1.74825,2.36197 .54885-.0645c.41381-.0486.58159-.0251.68192.0958 .2645.31872.0421.48748-.74687.56671-.41415.0416-.73853.113-.72085.15868s.58848,1.27731 1.26845,2.73696l1.23629,2.65392 .47083-.0441c.25895-.0243.54038-.0174.6254.0152 .22818.0876.18774.41957-.0721.59212l-.2267.15053 .55576,2.53377c.68749,3.13439.60855,2.89181.95414,2.93181s.45013.36579.17491.56704c-.18184.13297-.18218.26745-.007,2.93279 .10074,1.53639.18223,2.85415.1811,2.92835-.001.0882.16592.1349.4836.1349 .44509,0 .48566.0224.48566.26776 0,.30541-.12112.3481-1.15792.40822-.36974.0214-.7055.0722-.74612.11284-.0552.0552-.66792,4.69357-.68351,5.17449-.001.0448.34946.0691.77981.054 .76899-.027.78245-.0228.78245.24102 0,.2388-.0578.27674-.52319.34331-.28775.0412-.54982.10147-.58237.13402-.0613.0613-1.53335,5.0141-1.5367,5.17033-.001.0485.0901.059.20259.0233 .16953-.0538.55099.16786.55099.32017 0,.16644-.4106.37804-.7362.37939-.21835.00087-.45186.0373-.5189.0809-.10381.0675-2.63018,5.00819-2.63018,5.14368 0,.0262.13314.0631.29587.0818 .18733.0216.31.10859.33439.23707 .0485.25535-.15412.38689-.59914.38901-.31756.002-.49603.17999-2.12969,2.12988-1.39278,1.66237-1.74805,2.14784-1.62301,2.21782 .17052.0954.21862.46163.0725.55194-.0482.0298-.68208.10575-1.4087.16885-1.17476.102-1.34738.14321-1.55826.37201-.17041.1849-3.08518,2.60752-4.05547,3.37073-.0225.0177.39028.0219.91736.009 .91525-.0219.95985-.0122.99231.21605 .0409.28765-.0132.3026-1.6998.46981l-1.23411.12235-2.23377,1.3112c-1.90104,1.11589-2.19146,1.31934-1.94967,1.36586 .30938.0595.46655.49978.21074.59032-.35909.1271-3.54833.38421-6.24274.50327l-2.96538.13104-.698.57451c-.38389.31597-.78609.5745-.89376.5745-.37204,0-.34092-.32358.0718-.74619l.39761-.40719-2.18824-.0645c-1.20353-.0355-2.20132-.0514-2.21732-.0354s.11501.21954.29115.45232c.39886.52714.43131.90889.0772.90889-.18131,0-.38703-.18798-.75676-.69153zm3.21158-2.14148c.0414-.48971.10147-.99965.13356-1.13321l.0584-.24283-4.03188.00054-4.03189.00054 .29032.24229c.15967.13327.70389.59783 1.20937,1.03237l.91906.79008 2.13628.0836c1.17496.046 2.38499.0911 2.68895.10031l.55267.0167 .0752-.89038zm6.617-.43848c1.02393-.69783 1.86169-1.2858 1.86169-1.30659s-.30353-.015-.67452.0129-2.07949.10731-3.79667.17644l-3.12214.1257-.0764.28618c-.042.15739-.11159.68326-.15455,1.16859l-.0781.88241 2.08953-.0384 2.08952-.0384 1.8617-1.26878zm1.46255,1.10892 1.59746-.10867 2.2493-1.31966c1.23712-.72581 2.23242-1.33769 2.21177-1.35974s-.95035.0194-2.06601.092l-2.02847.13211-1.96962,1.30003c-1.08329.71501-1.96962,1.31709-1.96962,1.33796 0,.0544.19275.0472 1.97519-.0741zm-14.82418-.16501c-.0772-.093-.58188-.54893-1.12153-1.01317l-.9812-.84409-2.07544-.0392c-1.14151-.0216-2.07461-.0149-2.07358.0149s.32886.2479.72849.48477 1.04229.64158 1.42812.89935l.70151.46867 1.51093.0828 1.76698.099c.22077.0139.23671-.007.11572-.15293zm-3.56137-2.60996c-.003-.0445-.55154-.78515-1.21848-1.64585l-1.21263-1.5649-2.50491-.0304c-1.37771-.0167-2.50492-.01-2.50492.0154s.79763.75354 1.77252,1.61845l1.77251,1.57257 1.11446.0351c2.46133.0774 2.78707.0774 2.78145-.00032v-3e-005zm6.15283,0c-.003-.0445-.37898-.80432-.83642-1.68846l-.83171-1.60751-2.96367.0204c-1.63002.0112-2.98518.0419-3.01146.0682s.50569.77692 1.18217,1.66808l1.22997,1.62028h2.61791c1.43985,0 2.6158-.0364 2.61321-.0809zm5.61643-.0524 1.13287-.0285 .20584-1.70116c.11322-.93564.18128-1.72573.15125-1.75577-.0518-.0518-7.87501.16718-7.94379.22235-.018.0144.34628.78864.80943,1.72051l.84211,1.69429 1.83471-.0616 2.96758-.0901zm4.94789-.15406c1.26501-.0579 1.55985-.10187 1.61314-.24076 .0359-.0935.57082-.88992 1.18877-1.76989s1.09794-1.62556 1.06665-1.65686c-.0611-.0611-5.61487.15685-6.19807.24319-.40715.0603-.39208.0161-.62008,1.81861-.23329,1.84439-.29495,1.67738.61921,1.67692 .43035-.00022 1.47902-.0323 2.33038-.0712zm4.92754-.35826c.57529-.40961 4.80778-3.69964 4.78229-3.71741-.0185-.0129-.59212.0165-1.27474.0652s-1.77073.12512-2.41801.16969l-1.17688.081-1.21999,1.72679c-.671.94973-1.222,1.76408-1.22445,1.80965-.005.10063 2.37943-.0265 2.53178-.13499zm2.73026-.16385c.61127-.0395 1.25308-.1125 1.42626-.16217s1.29067-.89551 2.48331-1.87966c2.44673-2.019 2.41421-1.85946.34408-1.68796-.96122.0796-1.14249.12622-1.34906.34669-.13124.14008-1.17352.97293-2.31617,1.85078s-2.07755,1.62146-2.07755,1.65248 .085.0328.18887.004 .689-.0847 1.30026-.12422v1e-005zm-35.81377-5.40012-2.21647-2.21647-1.10226.031-1.10225.031 1.96136,2.18547 1.96136,2.18547h1.35737 1.35737l-2.21648-2.21648zm6.80392,2.16207c0-.0299-.87492-.99917-1.94427-2.15389l-1.94426-2.09949-1.9951-.0316c-1.09731-.0174-1.99505-.0152-1.99498.005s.93174,1.00342 2.07038,2.18547l2.07025,2.14919h1.86899c1.02794,0 1.86899-.0245 1.86899-.0544zm5.70201-.0324c-.0198-.0478-.51481-.98954-1.10005-2.09287l-1.06406-2.00604-3.19895-.0451c-1.75942-.0248-3.21036-.0389-3.2243-.0313s.85275.96963 1.92597,2.13791l1.95132,2.12415h2.37302c1.30516,0 2.35683-.0391 2.33705-.0868zm5.96235-.11583c.0456-.049-.10775-2.89593-.21704-4.02847-.006-.0654-7.02421.01-7.10651.076-.0166.0134.46184.95269 1.06313,2.08741l1.09323,2.06312 2.55235-.0655c1.40379-.036 2.58047-.0957 2.61484-.13262zm6.44424-.17038c.0485-.0485.336-3.16279.34232-3.70816l.004-.3578-3.15679.0753c-1.73624.0414-3.16162.081-3.16753.088s.25337,3.97337.27062,4.04999c.0126.0558 5.6496-.0897 5.70723-.1473zm5.06693-.21032c.0609-.0609 1.82963-4.11399 1.80758-4.1421-.0132-.0169-.91684.0217-2.00796.0858s-2.38509.11186-2.87548.1061c-.64415-.008-.90437.0285-.93755.13001-.0253.0773-.11082,1.00918-.19013,2.07092l-.14421,1.93043 2.16063-.0774c1.18834-.0425 2.17254-.0893 2.18712-.10384zm3.53527-.17711c1.12808-.0621 2.16058-.13594 2.29444-.16408 .19237-.0405.45961-.48315 1.27472-2.11166l1.03133-2.06048-1.05887.0713c-.58238.0392-1.82653.11214-2.76479.16212s-1.72158.10835-1.74072.12973c-.0321.0358-1.30581,2.93089-1.64339,3.73527l-.1472.35075h.35171c.19344,0 1.27468-.0508 2.40277-.11291zm5.58221-.37883 1.04889-.0675 .72149-1.25829c.39682-.69206.95802-1.64042 1.24711-2.10747l.52563-.84918-.56922.0635c-.31306.0349-1.12772.0952-1.81034.13391s-1.3065.12288-1.38638.18696c-.13276.10647-2.06721,3.86981-2.06721,4.0216 0,.0361.27926.0383.62057.005s1.09257-.0912 1.66946-.12834v-1e-005zm3.71433-.50955c.48907-.50912 3.17257-3.88793 3.12536-3.93515-.0274-.0274-.56673-.0146-1.19849.0285-.97022.0661-1.18244.11392-1.36614.30766-.2351.24794-2.35603,3.75715-2.35603,3.89818 0,.0471.3521.053.78245.0131 .60693-.0562.83414-.12625 1.01285-.31229zm3.41513-1.99361c.98132-1.17233 1.76898-2.14729 1.75036-2.16659s-.25602-.002-.52757.039c-.48121.0722-.52593.11407-1.76366,1.6523l-1.68384,2.09255-.4139.51429h.4272c.423,0 .44473-.0209 2.21141-2.13151zm-36.18739-1.40302c-.001-.10388-.23317-1.1359-.51492-2.29339l-.51227-2.10453-1.94036-.0267c-1.0672-.0147-2.0052.015-2.08445.066-.11602.0746-.0467.4583.35575,1.96932 .27491,1.03215.54993,2.03447.61114,2.22738l.1113.35076h1.98823c1.82261,0 1.98801-.0157 1.98558-.18887zm5.22193.10529c.0284-.046-.0652-1.078-.20792-2.29339s-.26028-2.25388-.26114-2.30773c-.001-.0887-4.95526-.003-5.04553.0874-.0312.0312.85106,3.88876 1.00821,4.40839 .052.17182.25553.18887 2.25592.18887 1.20934,0 2.22205-.0376 2.25046-.0836zm-15.25625-.15392c0-.0713-.37119-1.06687-.82486-2.21245l-.82485-2.08288h-1.60345c-.88189,0-1.60344.0262-1.60344.0583s.52059,1.00171 1.15687,2.15476l1.15687,2.09646 .97464.0353 1.27143.0577c.1714.0129.29679-.0324.29679-.10718zm5.2864.0486c-.001-.0445-.25896-1.02798-.57313-2.18547l-.57123-2.10453-2.50272-.029c-1.62646-.0188-2.50272.009-2.50272.0797 0,.11523 1.45763,3.80312 1.63181,4.12859 .0931.17402.30591.19166 2.31123.19166 1.21476,0 2.2078-.0364 2.20676-.0809zm16.68246-.051c.0762-.0764.28424-4.63199.2147-4.70154-.0495-.0495-6.64233.15668-6.69502.20936-.0237.0237.0752,1.06165.21963,2.30662s.2631,2.27792.26365,2.29544c.002.0709 5.92493-.0376 5.99704-.10988zm-25.31452-.0259c0-.0982-2.1796-3.99997-2.31061-4.13623-.0954-.0993-.43228-.13014-1.17707-.10792l-1.04339.0311 1.43858,2.05057c1.38449,1.97345 1.45447,2.05303 1.86082,2.11619 .54458.0847 1.23167.11046 1.23167.0463zm30.77085-.14926c.0551-.0586.64471-4.40278.63746-4.69691-.002-.093-4.32519.00043-4.87538.10539l-.28629.0546-.0631,1.31581c-.0347.72369-.0784,1.79493-.097,2.38052l-.0338,1.06472 2.32591-.0768c1.27925-.0422 2.35576-.10855 2.39226-.14736zm3.22534-.0776c1.15749-.0411 2.20166-.1113 2.32038-.15592 .16575-.0623.41079-.63858 1.05572-2.48286 .46194-1.32095.82618-2.41447.80944-2.43006s-1.3903.0517-3.05233.14943l-3.02189.17776-.28849,2.15849c-.35844,2.68183-.36279,2.78322-.11622,2.71229 .10387-.0299 1.1359-.088 2.29339-.12913zm6.74528-.35555 1.07924-.0691 1.27538-2.51997c.70145-1.38598 1.25996-2.53294 1.24113-2.5488-.0487-.041-4.12608.25317-4.83018.34853l-.58689.0795-.83744,2.37434c-.46059,1.30588-.83999,2.41427-.84311,2.46307-.005.0819.54555.0618 3.50187-.12754zm4.49517-.29639c.63223-.0388 1.19638-.10069 1.25366-.1375 .13716-.0881 2.94453-5.00802 2.88923-5.06332s-3.59428.19767-3.97279.28646c-.26583.0624-.43768.35198-1.53853,2.59294l-1.23928,2.52274 .7291-.0654c.401-.036 1.24638-.0971 1.87861-.13594zm4.0536-.32142c.33049-.0506.40381-.16396 1.58519-2.45031 .68127-1.31847 1.27192-2.48417 1.31255-2.59045 .068-.17785.0148-.1879-.66783-.12631-1.24408.11225-1.15057.0179-2.69285,2.71645-.76698,1.34201-1.41185,2.48431-1.43305,2.53846-.0358.0916 1.05448.0411 1.89599-.0878zm2.5242-.24595c.0356-.0378.65619-1.22477 1.37916-2.63767l1.31448-2.56892-.67765.0717c-.39164.0414-.73098.13873-.80401.23049-.17466.21949-2.51779,4.84283-2.51779,4.96799 0,.10938 1.19798.051 1.30581-.0636zm-53.7152-3.71121c-.0443-.13355-.4291-1.35984-.85506-2.72509l-.77445-2.48226-.70014-.0315c-.52797-.0238-.73411.009-.83827.1349-.17548.21144-.3943.21354-.4745.005-.0528-.13754-.5006-.24401-.5006-.11901 0,.0525 1.39099,5.1374 1.45703,5.32637 .0344.0983.41619.1349 1.40686.1349h1.35972l-.0806-.24283zm3.62755.12057c0-.0673-.31568-1.25982-.70151-2.65017s-.70151-2.55259-.70151-2.58275-.70608-.0431-1.56907-.0287c-1.05899.0176-1.55596.0637-1.52876.14181 .0222.0636.39635,1.26912.83151,2.67888l.79119,2.5632h1.43907c.99997,0 1.43908-.0373 1.43908-.12226zm5.33063.0332c.0303-.049-.30057-1.27529-.73525-2.72509l-.79031-2.63599-2.12385-.0293c-1.16813-.0161-2.18787.008-2.26611.054-.13275.0777.24583,1.63402 1.18192,4.8589l.16447.5666h2.25703c1.24137,0 2.28181-.0401 2.3121-.0891zm5.23925-.20769c-.004-.10387-.21034-1.30588-.45923-2.67113l-.45251-2.48226-2.56265-.0289c-1.40947-.0159-2.56266.0124-2.56266.0629 0,.13208 1.48922,5.07789 1.56678,5.20338 .0385.0624.95924.10488 2.27091.10488 2.03163,0 2.20555-.0149 2.19936-.18887zm5.93015.0157c.0229-.0197-.0743-1.21512-.2159-2.65643l-.25747-2.62057-2.78527-.0195c-2.20528-.0154-2.79653.01-2.83932.1214-.0463.12078.74588,4.84622.8729,5.20663 .034.0965.68045.11289 2.61435.0663 1.41303-.0341 2.58785-.0781 2.61071-.0978zm4.84202-.10772 1.32208-.0646v-1.3752c0-.75637.032-1.97034.0711-2.69773l.0711-1.32252-3.01205.0778c-1.65663.0428-3.03397.0978-3.06076.12214-.0471.0429.42263,5.21622.48353,5.32513 .0351.0627 2.21448.0283 4.12498-.065zm5.72-.2182c1.04084-.0577 1.10634-.075 1.10813-.29374 .001-.12784.0963-1.32304.21161-2.65599s.19116-2.44209.1685-2.46474c-.0673-.0673-4.88623.10919-5.00617.18331-.0665.0411-.14066,1.12126-.18728,2.72783l-.0772,2.65979 1.33808-.0476 2.44432-.10888zm5.67836-.25509c.94167-.0538 1.73028-.11603 1.75245-.13819 .0622-.0622.39625-5.26577.34154-5.32047-.0718-.0718-5.41175.192-5.50539.27199-.0638.0545-.51319,4.65946-.51319,5.25847 0,.15928-.17266.16244 3.92459-.0718zm5.61971-.32893c.88652-.0594 1.62174-.11927 1.63382-.13301 .0238-.0271.56099-5.30254.54275-5.32987s-4.54798.19222-4.77011.23678-.23253.15-.35498,2.179c-.0708,1.17349-.15672,2.38844-.19089,2.69989l-.0621.56628 .79485-.0555 2.4067-.16354zm5.51543-.39143 .76838-.065 .61085-2.64897c.33597-1.45694.59186-2.66797.56865-2.69119-.0689-.0689-4.36738.2215-4.50102.30409-.0953.0589-.6135,4.29283-.63173,5.16181-.003.15283.85056.13654 3.18487-.0608zm3.98893-.34282 .4317-.0713 .86907-2.64415c.70592-2.1478.83761-2.64901.7015-2.67007-.0922-.0143-.87176.0343-1.73245.10792l-1.56491.13385-.54781,2.37434c-.3013,1.30589-.5831,2.51433-.62622,2.68543l-.0784.3111 1.05791-.0779c.58185-.0428 1.25217-.11 1.4896-.14921zm3.0597-.33642c.10204-.0556 1.83248-4.97914 1.84947-5.26226 .003-.0583-1.89617.10706-1.96496.17107-.0427.0398-.46305,1.25368-.93406,2.69763l-.85637,2.62536 .88009-.0762c.48405-.0419.94568-.11194 1.02583-.15558zm2.35235-.26041c.13081-.12898 1.61402-5.11842 1.53896-5.17696-.0241-.0188-.33318-.006-.68681.0281l-.64296.0623-.83906,2.59019c-.46148,1.4246-.83993,2.622-.84099,2.66089-.003.11702 1.33741-.0329 1.47086-.16453zm-61.21375-5.97693c-.25113-1.29104-.49988-2.5659-.55277-2.83301l-.0962-.48566-.76892-.0315-.76891-.0315 .089.40924 .58982,2.7296c.27544,1.27621.52055,2.38109.54468,2.45529 .029.0892.27683.1349.73186.1349h.68799l-.4566-2.34736zm3.35556,1.99661c-.0322-.19292-.20533-1.41921-.38463-2.7251s-.34787-2.43504-.37459-2.50924c-.066-.18318-2.53761-.19395-2.53761-.0111 0,.11517.90131,4.81404 1.02684,5.35331 .0542.23287.10315.24283 1.19256.24283h1.13605l-.0586-.35075zm4.31354.10792c-.0815-.351-1.02697-5.33283-1.02697-5.41124 0-.0363-.75278-.0659-1.67283-.0659s-1.67283.0385-1.67283.0857 .16998,1.31296.37774,2.813 .37773,2.74849.37773,2.77434 .82655.047 1.83677.047h1.83677l-.0564-.24283zm5.28636.10793c-.0261-.0742-.29342-1.17908-.59406-2.45529s-.59532-2.50249-.65485-2.72509l-.10822-.40471h-2.16603-2.16603l.0586.24283c.0667.27623 1.04403,5.36045 1.04403,5.43108 0,.0253 1.04264.0461 2.31699.0461 1.80694,0 2.30654-.0297 2.26955-.1349zm5.50053.0128c.0701-.0701-1.07599-5.47264-1.1838-5.58045-.0698-.0698-4.83034-.0235-4.90262.0477-.0413.0407 1.13121,5.16369 1.26597,5.5315 .0436.11894.49593.13915 2.40358.10737 1.29244-.0215 2.38004-.0693 2.41687-.10613zm5.83682-.11672c.0422-.0423-.0593-1.31714-.2257-2.83301l-.30247-2.75614h-2.9078-2.90782l.0638.24283c.0351.13356.31998,1.42485.63315,2.86954l.56941,2.6267 2.50036-.0365c1.37519-.0201 2.5349-.0711 2.57712-.1134zm6.20163-.14203c.0302-.0174-.0426-1.28647-.16189-2.82027l-.21686-2.78874-2.80604.0406c-1.54332.0223-2.8241.0566-2.84619.0761s.0981,1.30533.26698,2.85728l.30712,2.82172 2.70095-.0776c1.48552-.0427 2.72569-.0918 2.75593-.10912zm4.09811-.12237 1.65119-.0715-.0712-1.73627c-.0392-.95495-.102-2.21734-.13967-2.80532l-.0685-1.06905-2.53609.0692c-1.39485.0381-2.56099.0941-2.59144.12457-.0569.0569.27481,4.88115.36557,5.31696 .0472.22682.10623.24283.89474.24283 .4643,0 1.58722-.0322 2.49537-.0715zm6.91995-.32209 .38852-.0605 .0702-1.46284c.0386-.80456.0702-2.04342.0702-2.753v-1.29017l-2.67113.0784c-1.46912.0432-2.68414.0899-2.70003.10399-.0436.0385.20416,5.269.25784,5.44319 .0389.12619.38944.1388 2.12127.0763 1.14108-.0412 2.24952-.1021 2.46321-.13539zm4.62997-.23777 1.34905-.0702 .068-1.07924c.0374-.59358.082-1.83202.0991-2.75207l.0311-1.67283-.47681.0211-2.5004.0926-2.02359.0715v1.80643c0,.99354-.031,2.24393-.069,2.77864l-.069.9722 1.12127-.049 2.47033-.11921zm4.62188-.29306c.7569-.0443 1.23797-.11825 1.26351-.19416 .0227-.0674.11604-1.06961.20747-2.2271s.19302-2.34063.22576-2.62919l.0595-.52467-1.11154.0681-2.04768.13075-.93614.0626-.0583.77165c-.032.4244-.0853,1.65972-.11838,2.74514l-.0601,1.97351 .67679-.0525c.37224-.0289 1.22682-.0848 1.89906-.12414zm4.2527-.27399c.90643-.0655 1.66074-.13084 1.67625-.14513 .0567-.0522.56189-5.27934.5148-5.32644-.0674-.0674-3.91496.13085-3.98965.20554-.0498.0498-.49259,4.75881-.49259,5.23899 0,.17876.16545.18071 2.29119.027zm4.75088-.38268c.11238-.0312.18887-.15649.18887-.30949 0-.29854.29344-3.88017.37343-4.55793l.0541-.45868-.51057.002c-.51223.002-1.84982.16789-1.91977.23784-.0205.0205-.13598,1.03124-.25653,2.24602s-.24554,2.39478-.27773,2.62224l-.0585.41355 1.10891-.0717c.60991-.0394 1.19391-.0953 1.29779-.12404zm2.58261-.23908c.0744-.0695.62814-4.49431.62814-5.019v-.28513l-.94434.0696c-.51939.0383-.95638.0789-.97111.0904-.0256.0199-.45889,4.91386-.45889,5.18309 0,.0945.22842.11627.83642.0798 .46002-.0276.86943-.081.90978-.1187zm-62.39974-7.24551v-3.12981h-.84633-.84633l-.0707,2.02358c-.0389,1.11298-.0709,2.52139-.071,3.12981l-.0003,1.10623h.91735 .91736v-3.12981zm3.45359,0v-3.12981h-1.40301-1.40303v3.12981 3.12981h1.40303 1.40301v-3.12981zm3.88528,0v-3.12981h-1.61886-1.61887v3.12981 3.12981h1.61887 1.61886v-3.12981zm5.93585.005v-3.12515l-2.64415-.005-2.64415-.005v3.1304 3.13041h2.64415 2.64415v-3.12515zm4.55981,3.01767 1.05226-.00043v-3.07585-3.07585h-2.48226-2.48226v3.05786c0,1.68182.0364,3.09617.0809,3.143s.68802.0551 1.43.0184 1.82257-.0669 2.40132-.0671zm5.66602-.0704 .5666-.0681v-3.0773-3.07731l-1.21415.07c-.66777.0385-1.68765.0702-2.2664.0704l-1.05226.00049v3.07585 3.07584l1.69981-.00097c.93489-.00054 1.95477-.0316 2.2664-.069v4e-005zm6.47441-.18983c.0267-.0267.013-1.38362-.0303-3.01543-.0692-2.60393-.10017-2.97129-.25307-3.00265-.0958-.0197-1.2548-.0202-2.57553-.001l-2.40132.0345v3.08554 3.08553l2.60588-.0689c1.43324-.0379 2.62771-.0907 2.65438-.1174zm4.229-.0663c1.62791-.0591 2.97345-.12109 2.9901-.13773 .0527-.0527-.36968-5.91761-.43055-5.97848-.032-.032-1.45228-.0221-3.15621.022l-3.09806.0801 .0704,2.17178c.0387,1.19448.0705,2.57245.0707,3.06215l.00029.89038 .29679-.001c.16323-.00076 1.62871-.0497 3.25662-.10883zm7.53582-.27982 .67453-.0589v-3.00122-3.00123l-2.13151.0449c-1.17233.0247-2.28956.0701-2.48274.10084-.33539.0534-.34885.074-.29834.45568 .0291.21985.10298,1.27392.1642,2.34238s.14071,2.24881.17664,2.62302l.0653.68038 1.57869-.0635c.86828-.0349 1.88222-.09 2.25321-.12237zm5.18038-.21585 .67452-.0589v-3.00442-3.00442l-1.26811.0484-2.26641.10912-.9983.0607v3.01831 3.0183l1.59188-.0641c.87554-.0353 1.89543-.0906 2.26642-.12301zm4.45188-.20413c.80134-.0334 1.66338-.0864 1.91566-.11766l.45868-.0569v-2.97749-2.97748l-1.91566.0733c-1.05361.0403-2.29205.10316-2.75208.13962l-.83641.0663v3.02031 3.0203l.83641-.0648c.46003-.0356 1.49206-.0921 2.2934-.12554zm5.91378-.33512 .46359-.0568-.0623-2.0702c-.0343-1.13861-.0894-2.47086-.12253-2.96057l-.0602-.89038h-.40522c-.22288,0-.92272.0317-1.55522.0704l-1.15.0704v3.01128 3.01128l1.21415-.0643c.66779-.0354 1.42277-.0899 1.67775-.12108zm3.16795-.24453c.0734-.0705-.27426-5.81169-.35687-5.8943-.0261-.0261-.46917-.0177-.98455.0186l-.93707.0661 .0522,1.09033c.0287.59969.0815,1.9489.1172,2.99826l.065,1.90792 .98702-.0598c.54286-.0329 1.01854-.0901 1.05706-.12716zm2.20624-.14916c.0285-.0285-.0226-1.21156-.11348-2.62911s-.16543-2.74226-.1657-2.94378l-.00054-.36641-.76825.0644c-.42254.0354-.77851.0789-.79105.0966s.0627,1.2949.16723,2.83822 .19336,2.87339.19746,2.95572c.006.11775.15838.13756.71499.0929 .38916-.0312.73084-.0801.75929-.10853h5e-005zm1.31563-.0632c.11203-.0711.10177-.64034-.054-2.99325l-.19229-2.90547-.29741-.0342c-.18681-.0215-.32003.0248-.35825.12436-.0335.0872.0154,1.35849.10854,2.82507s.16938,2.75832.16938,2.87054c0,.21619.35892.28116.62399.11296zm-64.89864-5.2242c.0577-.26729.59923-4.61858.59923-4.81502 0-.0812-.29119-.12252-.8634-.12252-.47486,0-.86339.0425-.86339.0944s-.14556,1.1325-.32346,2.40132-.32361,2.39192-.32378,2.4958c-.00027.16412.11254.18886.86103.18886 .80576,0 .86472-.0157.91377-.24283zm3.29735.0859c0-.0863.12164-1.23187.27032-2.54571s.25058-2.42094.22645-2.46025-.59908-.0565-1.27765-.0383l-1.23378.0332-.28938,2.34113c-.15916,1.28762-.28865,2.4504-.28777,2.58395 .002.23825.0261.24283 1.29672.24283 1.06101,0 1.29509-.0284 1.29509-.15691zm4.46902-.30176c.0315-.25228.0846-1.13861.11797-1.96963s.089-1.81448.12374-2.18547l.0631-.67452h-1.74275c-1.29568,0-1.75553.0346-1.79256.1349-.0442.11977-.59096,4.79228-.59096,5.05044 0,.0614.75988.10295 1.88206.10295h1.88207l.0573-.45867zm4.74149-1.50127c.0391-1.07796.071-2.26783.071-2.64415v-.6842h-1.9287-1.92871l-.0659.83641c-.0363.46003-.0938,1.54062-.12797,2.40132s-.0845,1.67418-.11194,1.80773l-.0499.24283h2.03559 2.03559l.071-1.95994zm5.50532,1.13452c.0384-.4543.0698-1.67564.0698-2.71408v-1.88807l-1.64585.0749c-.90521.0412-1.99795.0692-2.4283.0623l-.78245-.0126-.00032.95165c-.00022.5234-.032,1.71441-.0707,2.64668l-.0703,1.69503 2.42914.005 2.42914.005 .0698-.82602h-3e-005zm5.94805.70315c.0219-.0219.0753-1.24565.11865-2.71942l.0788-2.67957-2.68709.0765c-1.4779.0421-2.69555.0827-2.7059.0903-.0185.0136-.0607,5.10101-.0438,5.2893 .008.09 5.14827.0339 5.23934-.0571zm5.66872-.0565 .67826-.0709-.0699-.98138c-.0385-.53975-.10149-1.75383-.14008-2.69795l-.0702-1.71658-2.53909.0693c-1.3965.0381-2.57258.10637-2.61352.15168s-.10716,1.26011-.14718,2.69955l-.0728,2.61717h2.1481c1.18146,0 2.45332-.0319 2.82636-.0709zm6.87465-.18344c.0357-.0357-.40296-5.16609-.45579-5.33033-.0335-.10426-.55932-.12116-2.3402-.0752-1.26333.0326-2.45479.0832-2.64771.11239l-.35075.0531-.00076.77757c-.00086.87837.1995,3.98694.28247,4.38236l.0544.25915 2.71646-.0768c1.49406-.0422 2.72792-.0883 2.74191-.10225h-1e-005zm5.16866-.13601 1.08802-.0596-.39191-2.68537c-.21555-1.47695-.41677-2.71023-.44716-2.74062-.0683-.0683-5.07072.13037-5.14464.20428-.0472.0472.20911,3.38807.3752,4.89001l.0627.56737 1.68487-.0582c.92667-.032 2.17447-.085 2.77288-.11784zm6.04174-.24294 .33052-.0682-.40251-2.68016c-.22137-1.47409-.42259-2.70024-.44713-2.72479-.0662-.0662-4.40653.14298-4.47942.21587-.0569.0569.56828,4.83436.68912,5.26622 .0473.16913.22091.17966 2.01534.1222 1.07996-.0346 2.11229-.0936 2.29408-.13111zm4.4991-.1872c.82873-.045 1.26863-.11105 1.26961-.19076 .00087-.0671-.27622-1.30507-.61567-2.75108l-.61718-2.62911-1.5698.0685c-.86338.0377-1.84878.0964-2.18977.1304-.56512.0564-.61545.0824-.56876.29419 .0282.12776.19946,1.25218.38062,2.49871s.35446,2.38133.3851,2.52178c.0553.25355.0635.25491 1.15671.19076 .60556-.0355 1.67167-.0956 2.36914-.1334zm4.47886-.21555c.43035-.0339.78245-.10171.78245-.1507s-.24283-1.24387-.53962-2.6553-.53962-2.60878-.53962-2.66079c0-.0795-3.33395.00075-3.43161.0825-.029.0243.92594,4.21954 1.16715,5.12743l.10096.37996 .83892-.0307c.4614-.0169 1.19102-.0585 1.62137-.0924zm3.56151-.21555c.31163-.0325.5666-.10794.5666-.1677 0-.0843-.81276-3.76435-1.1355-5.14134-.0575-.24538-.0665-.24656-1.32289-.17425-.69575.04-1.28089.0862-1.30031.10248-.0356.0299 1.05567,5.33983 1.12017,5.45077 .0371.0639 1.14712.0264 2.07193-.07zm2.52273-.15144c.4296,0 .52591-.0346.5249-.18887-.00064-.10387-.30683-1.33016-.68034-2.72509l-.67912-2.53622-.73896-.0323c-.40642-.0178-.77402.007-.81688.054-.0627.0694.9485,4.8687 1.14089,5.41468 .0365.10354.15308.12788.38778.0809 .18458-.0369.57236-.0671.86173-.0671zm1.57088-.18887c-.026-.0445-.30316-1.25866-.61596-2.69811-.54641-2.51444-.57869-2.61716-.82253-2.61716-.13959,0-.2538.0345-.2538.0767 0,.0949 1.1569,4.48575 1.30917,4.96873 .0608.19292.18253.35076.27047.35076s.13863-.0364.11265-.081zm-63.12985-4.26301c.0965-.12299 2.29497-6.03731 2.29497-6.17382 0-.0324-.40905-.0588-.90899-.0588h-.90899l-.11294.35076c-.0621.19291-.45608,1.54062-.87549,2.9949s-.78845,2.72914-.82007,2.83302c-.0503.16514.0231.18886.5841.18886 .3849,0 .68393-.054.74741-.1349zm2.62618.0285 1.3565-.001 .94878-3.02799c.52182-1.6654.93092-3.04584.90911-3.06766s-.66669-.0514-1.43307-.0658l-1.39341-.0261-1.11121,3.01285c-.61118,1.65706-1.11294,3.07921-1.11504,3.16034-.003.10075.0731.12687.23902.0824 .13355-.0358.85325-.0657 1.59932-.0666zm6.32605-2.86147 .73526-3.05176 .0598-.24574-1.58007.0299-1.58008.0299-.79856,2.53622c-.43921,1.39493-.86846,2.76808-.95388,3.05146l-.15533.51522 1.79871-.0296 1.7987-.0296 .67542-2.80604zm4.19093,2.72509c.0372-.10239.80765-5.80872.80765-5.98164 0-.0193-.79205-.0351-1.76011-.0351h-1.76012l-.72434,2.9949c-.39839,1.6472-.72335,3.03133-.72215,3.07585s.92647.0809 2.05615.0809c1.54509,0 2.06608-.0334 2.10292-.13491zm5.77217-.0581c0-.14005.52791-5.00405.59694-5.5l.0638-.45868h-2.48888c-1.36888,0-2.48887.0401-2.48887.0891s-.16999,1.38276-.37774,2.96389-.37774,2.90088-.37774,2.93278 1.14131.058 2.53623.058 2.53622-.0383 2.53622-.0851zm6.12471-.0862c.64428-.059.67452-.0747.67452-.35104 0-.32374.28396-4.07357.3755-4.95877l.059-.57052-2.96933.0149c-1.63312.008-2.97061.0464-2.9722.0849s-.14282,1.35669-.31385,2.92935-.2958,2.88394-.27727,2.91396c.0434.0704 4.53792.0184 5.42362-.0627zm7.54853-.19329c.0114-.0104.0555-1.32285.0979-2.91667l.0771-2.89787-2.92707.0458c-1.60989.0252-2.95619.0749-2.99178.11052-.0598.0598-.47353,4.82246-.47986,5.52424l-.003.31089 3.10283-.0791c1.70655-.0435 3.11218-.0875 3.12362-.0979h1e-005zm5.06974-.15888c1.01905-.0386 1.88834-.10573 1.93177-.14921 .0646-.0647-.79075-4.71002-.99658-5.41237-.0566-.19329-.18186-.2007-2.58387-.15298-1.38838.0276-2.54193.0704-2.56344.0952s-.0687,1.31991-.1048,2.87807l-.0657,2.83302 1.2649-.0108c.69569-.006 2.09866-.0424 3.11771-.0809zm7.0304-.30059c.94479-.0511 1.20828-.0981 1.16614-.20793-.03-.078-.37497-1.24975-.76673-2.60383s-.73798-2.54794-.7694-2.65306c-.0532-.17798-.22148-.18663-2.45045-.12593-1.31634.0358-2.44784.0815-2.51446.10149-.0823.0247.0493.89591.41017,2.71612 .29221,1.4739.55397,2.7467.58169,2.82845 .0515.15204.65341.14437 4.34304-.0553zm4.58344-.21129c1.50575-.0622 1.6963-.0907 1.64598-.24602-.0313-.0966-.462-1.34123-.95713-2.76583l-.90023-2.59019-1.46552.0403c-.80604.0222-1.7276.0707-2.04792.10793l-.5824.0676 .80795,2.78665 .80794,2.78665 .49422-.0584c.27182-.0321 1.26052-.09 2.19711-.12874zm5.07478-.25269c.64108-.0494 1.19396-.11822 1.22863-.15288 .0599-.0599-2.18512-5.23722-2.32671-5.36563-.0736-.0668-3.35277.0728-3.42581.14582-.0247.0246.37473,1.26628.88751,2.75917l.93234,2.71436 .76922-.005c.42307-.003 1.29374-.0459 1.93482-.0953zm3.97665-.22294c.37751,0 .63171-.0466.63171-.1157 0-.10567-1.96274-4.90242-2.16141-5.28226-.0729-.1394-.28091-.15195-1.40458-.0847-.72545.0434-1.33642.0963-1.35771.1176s.5049,1.26732 1.1693,2.76895l1.20801,2.73024 .64148-.067c.35282-.0369.92576-.067 1.2732-.067zm2.53453-.17259c.21688-.0582.15905-.21346-1.01441-2.72362-.68442-1.46404-1.27357-2.69182-1.30923-2.72839s-.29283-.0366-.57149,0l-.50666.0665 .69715,1.67283c.38343.92006.89602,2.14635 1.13908,2.7251l.44193,1.05226 .44682-.001c.24575-.00086.55032-.0292.67681-.0632zm-53.35915-5.19665c.23321-.26697 2.89034-4.201 2.89034-4.27932 0-.0356-.74526-.0646-1.65615-.0646h-1.65615l-1.31177,2.16178c-.72147,1.18898-1.31177,2.1812-1.31177,2.20495 0,.0899.52521.13719 1.68308.1514 1.01741.0125 1.22223-.0137 1.36242-.17417zm6.78456-2.07333c.46995-1.21454.85446-2.22228.85446-2.23944s-.87358-.0312-1.9413-.0312h-1.94129l-1.43135,2.12952c-.78723,1.17123-1.47066,2.19199-1.51873,2.26835-.0705.11202.4157.13324 2.51818.10991l2.60557-.0289 .85446-2.20824zm6.46717,2.23522c.00033-.0148.17034-.9982.37774-2.18525s.37709-2.19559.37709-2.24122-1.2711-.07-2.82468-.0542l-2.82467.0288-.84359,2.15849c-.46397,1.18717-.84411,2.19492-.84475,2.23944s1.48009.0809 3.29052.0809 3.29199-.0121 3.29234-.027zm6.23259-.0698c.0533-.0358.20628-.98782.34001-2.11563s.26685-2.13556.29581-2.23943c.0489-.17543-.10341-.1888-2.14009-.18793-1.20601.00054-2.43979.0306-2.74172.0669l-.54898.066-.34886,2.0646c-.19187,1.13553-.37402,2.15262-.40477,2.2602-.053.18562.0847.19445 2.69791.17299 1.51461-.0124 2.79741-.0519 2.85069-.0877zm-22.26001-1.81166 1.32819-2.20887 .24895-.41548-.95046.003-.95045.003-1.2951,2.12364c-.7123,1.168-1.31128,2.16235-1.33107,2.20967s.39303.0844.91736.0825l.95333-.004 1.07925-1.79339zm29.35824,1.73349 .54243-.0652-.18643-2.1733c-.10254-1.19531-.18879-2.23575-.19167-2.31208-.004-.11134-.57591-.12466-2.89222-.0674-1.58784.0393-2.92423.10498-2.96975.146-.0685.0618-.61684,3.9674-.61829,4.40411-.00033.1046.64816.13469 2.88653.13397 1.58784-.00054 3.13107-.0303 3.4294-.0661zm6.22099-.13223c1.16747-.0388 2.15222-.10014 2.18835-.13635s-.38476-1.09252-.93531-2.34736l-1.001-2.28152-.86358.006c-1.18152.008-4.69517.1739-4.74412.22348-.0293.0297.32101,4.43737.3656,4.60001 .0125.0454 2.74786.0101 4.99006-.0644zm6.43806-.22678c.96882-.0512 1.78806-.11957 1.82053-.15204 .0533-.0533-2.25313-4.44242-2.43011-4.62456-.0603-.0621-4.75621.11523-4.84883.18307-.0151.0111.38955.9629.89928,2.11516s.97014,2.20429 1.02313,2.33784c.0886.22336.16363.24246.93543.23818 .4615-.003 1.63176-.0465 2.60057-.0977zm4.97265-.22312c.51068-.00087.99249-.0422 1.0707-.0918 .10686-.0678-.22563-.66891-1.33806-2.41927l-1.48024-2.32911-1.36006.0623c-.74803.0343-1.43847.0916-1.5343.12753-.14305.0536.0404.4619 1.02529,2.28166 .65973,1.21904 1.24265,2.28157 1.29537,2.36118 .0714.10777.2615.12743.74432.077 .35666-.0373 1.0663-.0685 1.57698-.0694zm3.9932-.21585c.3326-.00087.66891-.0423.74735-.0921 .10745-.0681-.22277-.66776-1.33936-2.43214l-1.48197-2.34171-1.30479.0732c-.71764.0403-1.36219.10353-1.43235.14057-.0843.0445.16447.5247.73371,1.41622l1.50901,2.36199 .64774,1.01311 .65797-.0688c.36187-.0378.93009-.0695 1.26269-.0704zm2.90601-.26705c.0213-.0213-.73057-1.08452-1.67087-2.36266-1.69352-2.30196-1.71347-2.32394-2.11437-2.32853-.22259-.003-.40471.0215-.40471.0533 0,.0619 2.7571,4.4291 2.95119,4.67466 .0843.10663.26113.1265.65764.0739 .29829-.0396.55979-.0894.58112-.11072zm-49.36954-6.13004c.82375-1.17465 1.46899-2.16448 1.43385-2.19961s-.39815-.0878-.80671-.11702l-.74284-.0531-1.88391,2.14482c-1.03615,1.17966-1.92159,2.20712-1.96766,2.28324-.0667.11015.17685.13218 1.1929.10792l1.27664-.0305 1.49773-2.13572zm2.90373,1.51516c.26021-.37099.94426-1.3666 1.52009-2.21245l1.04698-1.53793h-1.54872-1.54871l-1.44989,2.06903c-.79744,1.13796-1.48872,2.13356-1.53619,2.21245-.0702.11666.20573.14343 1.47851.14343h1.56481l.47312-.67453zm6.06535-1.54545c.75451-1.22099 1.355-2.23538 1.3344-2.25421s-.94301-.009-2.04981.0225l-2.01238.0568-1.39587,2.06255c-.76773,1.1344-1.43128,2.12325-1.47456,2.19745-.0618.10605.3818.13491 2.07384.13491h2.15253l1.37185-2.21998zm4.96974-.0532 1.13754-2.27312-1.96412.0337-1.96412.0337-.76927,1.24113-1.38609,2.23943-.61683.99831h2.21268 2.21267l1.13754-2.27313zm8.1269,2.00336c.0223-.0223-.16486-.98672-.41582-2.14325-.35343-1.62877-.49008-2.08981-.60618-2.04526-.0824.0316-.21611.003-.29705-.0646-.10211-.0847-.86994-.11322-2.50787-.093l-2.3607.0291-1.10121,2.15849c-.60567,1.18716-1.10347,2.20242-1.10623,2.25613-.005.0915 8.3025-.005 8.39506-.0976zm6.39753-.22328c.0397-.0245-.3287-1.00423-.81866-2.1771l-.89083-2.13249-2.41594.038c-1.32878.0209-2.43483.056-2.45791.0779s.1706,1.01946.43038,2.21665l.47235,2.17671 2.80421-.0775c1.54232-.0427 2.8367-.0976 2.8764-.12216zm5.68878-.2483 .68224-.0681-1.36765-1.9966c-.75221-1.09813-1.42346-2.04979-1.49168-2.11479-.12956-.12347-4.30552-.0533-4.43331.0745-.0351.0351.33439,1.02344.82112,2.19628l.88497,2.13244 2.11103-.0778c1.16107-.0428 2.41804-.10848 2.79328-.14593zm4.35896-.21567 1.04801-.0683-1.51274-2.07754-1.51274-2.07755-.93828.0114c-.51606.006-1.36636.0427-1.88956.0809l-.95128.0695 1.42574,2.07754 1.42575,2.07755 .92855-.0127c.5107-.007 1.40015-.0434 1.97655-.0809zm4.10539-.22951c.28195-.00032.51264-.0498.51264-.10979s-.75859-.98278-1.68575-2.05056l-1.68575-1.94142h-1.18579c-1.02703,0-1.1772.0224-1.12156.16739 .0353.0921.70593,1.04555 1.49022,2.11885l1.42598,1.95146 .86869-.0676c.47777-.0372 1.09937-.0679 1.38132-.0683zm2.50262-.20228c.3163-.068.31247-.0734-1.43812-2.0378l-1.75526-1.96962h-.64842c-.35664,0-.63224.0431-.61245.0958s.80317.97545 1.74085,2.05057c1.84688,2.11758 1.76889,2.06408 2.7134,1.86105zm-38.82178-3.87251c.0394-.10388.40209-.71299.80605-1.35359s.73447-1.18697.73447-1.21415-.54779-.0494-1.21731-.0494h-1.2173l-1.41711,1.32208c-.7794.72714-1.42148,1.35849-1.42684,1.40301s.81741.0809 1.82836.0809c1.65136,0 1.84538-.0192 1.90968-.18887zm4.40052.079 .97132-.003 .83199-1.26119c.45758-.69366.82112-1.27205.80785-1.28532s-1.06758-.0352-2.34292-.0488l-2.31881-.0247-.82852,1.28535c-.45569.70695-.83207,1.32928-.83641,1.38296-.005.0569.56649.0683 1.36814.0274 .75682-.0386 1.81313-.0714 2.34736-.073zm-7.65596-1.37412 1.46284-1.37604-.49178-.0329c-.48791-.0326-.50387-.0225-2.02985,1.28616l-1.6406,1.40893c-.0564.0494.19876.0899.567.0899h.66954l1.46285-1.37603zm17.43808,1.1734c.0379-.0369.0183-.62088-.0436-1.29762l-.11253-1.23045-1.78138.0703c-.97976.0386-2.36855.071-3.08621.072l-1.30484.002-.64755.9841-.84565,1.29127-.19812.30717 3.97546-.0656c2.18651-.0361 4.0065-.0958 4.04441-.13278zm7.25594-.18978 .74149-.0638-1.22164-1.22512-1.22164-1.22512-1.19268.0535-2.52634.11571-1.33368.0622 .0691.82488c.038.45368.097,1.01282.13119,1.24252l.0622.41763 2.87531-.0693c1.58142-.0381 3.20898-.098 3.61679-.1331zm5.22134-.14677c.48971-.00024.89038-.0387.89038-.0855s-.59247-.6349-1.31661-1.30696l-1.31661-1.22191-1.46245.0684c-.80434.0376-1.7411.0962-2.08168.13023l-.61924.0618 1.15886,1.23858 1.15887,1.23859 1.34905-.0614c.74198-.0338 1.74973-.0616 2.23943-.0619zm5.73193-.27418c.0214-.0209-.75088-.6232-1.7162-1.33854l-1.75512-1.30061-1.08983.0688c-.59941.0379-1.2906.0983-1.53598.13438l-.44614.0655 1.3635,1.27455 1.3635,1.27456 1.88868-.0704c1.03877-.0387 1.90619-.0875 1.92759-.10831zm-23.58295-3.72255 1.3116-1.29818-1.99201.0546-1.992.0546-.95668.94678c-.52617.52073-1.05363,1.08034-1.17213,1.24358l-.21545.29679h1.85254 1.85253l1.3116-1.29818zm5.17417,1.19025h1.50758l-.0703-.78245c-.0387-.43035-.0997-1.0417-.1355-1.35856l-.0652-.57611-2.00996.0782-2.00996.0782-1.2951,1.24394c-.7123.68416-1.31391,1.29251-1.33692,1.35189-.0276.0712.63119.0836 1.93296.0364 1.08613-.0394 2.6532-.0715 3.48238-.0715zm-10.33353-.78245c.415-.43035.92242-.96592 1.12759-1.19016l.37303-.4077-.80652.0713c-.48177.0426-.88367.13844-.99814.23806-.10539.0917-.90673.59495-1.78075,1.11827l-1.58914.9515 1.45969.00061 1.45968.0006 .75456-.78245zm15.88999.58288 .89299-.0702-1.14624-1.27177-1.14624-1.27177-1.09581.0306-1.09581.0306 .0156.4317c.009.23743.0494.83237.0906,1.32207l.075.89038 1.25842-.0107c.69213-.006 1.66027-.0423 2.15142-.0809zm4.77304-.23788c1.03877-.0637 2.00538-.13986 2.14801-.16918 .20908-.043-.14146-.28036-1.80891-1.22494l-2.06825-1.17163-1.7946.0716-1.7946.0716 1.12125,1.2599 1.12125,1.2599 .59358.009c.32648.005 1.44349-.0428 2.48227-.10656z" fill="url(#a)" stroke="#fff" stroke-linecap="round" stroke-linejoin="round" stroke-width=".02158"/>
 <path transform="matrix(2.8117 0 0 2.8117 -867.49 -29.02)" d="m339.05 33.253-6.0214 1.5066c-6.1156 1.4249-6.1622 1.4876-5.4097 7.901l0.61168 6.3944-1.5908-6.0823c-1.5261-6.289-1.5298-6.2919-7.9334-5.4261l-6.3425 0.65621 6.3037-1.5391c6.0233-1.4089 6.0654-1.6544 5.4894-7.9149l-0.81431-6.3758 1.5621 6.1998c1.4279 5.7581 1.4471 5.8838 7.8868 5.2596l6.2585-0.57946z" fill="#fff" filter="url(#g)"/>
 <path transform="matrix(2.8117 0 0 2.8117 -867.49 -29.02)" d="m366.77 60.775-3.1723 0.79375c-3.2219 0.7507-3.2464 0.78372-2.85 4.1626l0.32226 3.3688-0.8381-3.2044c-0.80402-3.3133-0.80597-3.3148-4.1796-2.8587l-3.3415 0.34572 3.321-0.81084c3.1733-0.74223 3.1955-0.87162 2.892-4.1699l-0.42901-3.359 0.82297 3.2663c0.75226 3.0336 0.76237 3.0998 4.155 2.771l3.2972-0.30528z" fill="#fff" filter="url(#h)"/>
 <path transform="matrix(.46723 -.0405 .0405 .46723 -222.4 48.264)" d="m726.67 245.36c-2.9126 4.3689-47.058 26.196-52.298 25.858s-46.216-27.655-48.543-32.362 0.84223-53.851 3.7548-58.22 47.058-26.196 52.298-25.858 46.216 27.655 48.543 32.362-0.84224 53.851-3.7548 58.22z" fill="#fff" filter="url(#e)" opacity=".3482"/>
 <path transform="matrix(.46729 .03975 -.03975 .46729 -202.29 1.0827)" d="m685.85 211.06-27.709 5.1286-18.296-21.433 9.4132-26.561 27.709-5.1286 18.296 21.433z" fill="#fff" filter="url(#c)" opacity=".2976"/>
 <path transform="matrix(.46898 0 0 .46898 -219.09 23.081)" d="m658.14 233.54c0 28.582-22.585 51.752-50.445 51.752s-50.445-23.17-50.445-51.752 22.585-51.752 50.445-51.752 50.445 23.17 50.445 51.752z" fill="#fff" filter="url(#f)" opacity=".3482"/>
 <path transform="matrix(.31357 .02667 -.02667 .31357 -138.04 55.145)" d="m685.85 211.06-27.709 5.1286-18.296-21.433 9.4132-26.561 27.709-5.1286 18.296 21.433z" fill="#fff" filter="url(#d)" opacity=".3482"/>
</svg>
